<svg width="84" height="48" viewBox="0 0 84 48" fill="none" xmlns="http://www.w3.org/2000/svg">
<path d="M79.5935 7.86719H40.5755V32.5685H79.5935V7.86719Z" fill="#003A86"/>
<path d="M81.6235 34.4908H0.00354004V6H81.6235V34.4908ZM2.38354 32.2617H79.2575V8.24304H2.38354V32.2617Z" fill="#231815"/>
<path d="M2.62153 37.9598H1.73953V37.5H4.38553V37.9598H3.50353V41.9443H2.62153V37.9598Z" fill="#003A86"/>
<path d="M10.6015 37.9598H8.83754V39.4923H10.1535V39.952H8.83754V41.4845H10.6015V41.9443H8.83754C8.34754 41.9443 7.95554 41.7353 7.95554 41.4845V37.9598C7.95554 37.709 8.34754 37.5 8.83754 37.5H10.6015V37.9598Z" fill="#003A86"/>
<path d="M15.1795 39.7291L14.1995 37.5H15.0955L15.5435 38.6424C15.5715 38.7399 15.5995 38.8375 15.6275 38.935H15.6555C15.6835 38.8375 15.7115 38.7399 15.7395 38.6424L16.1875 37.5H17.0835L16.0895 39.7291L17.0835 41.9582H16.1875L15.7395 40.8158C15.7115 40.7183 15.6835 40.6207 15.6555 40.5232H15.6275C15.5995 40.6207 15.5715 40.7183 15.5435 40.8158L15.0955 41.9582H14.1995L15.1795 39.7291Z" fill="#003A86"/>
<path d="M20.8775 38.1556C20.8775 37.7794 21.4655 37.459 22.1935 37.459C22.9215 37.459 23.5235 37.7655 23.5235 38.1556V41.959H22.6415V39.9667H21.7595V41.959H20.8775V38.1556ZM21.7595 39.493H22.6415V37.9605H21.7595V39.493Z" fill="#003A86"/>
<path d="M27.5555 40.7887H28.4375V41.4853H29.3195V39.9528H28.4375C27.9475 39.9528 27.5555 39.7438 27.5555 39.493V38.1556C27.5555 37.7794 28.1435 37.459 28.8715 37.459C29.5995 37.459 30.1875 37.7655 30.1875 38.1556V38.6571H29.3055V37.9605H28.4235V39.493H29.3055C29.7955 39.493 30.1875 39.702 30.1875 39.9528V41.2903C30.1875 41.6664 29.5995 41.9869 28.8715 41.9869C28.1435 41.9869 27.5555 41.6804 27.5555 41.2903V40.7887Z" fill="#003A86"/>
<path d="M39.1475 37.5H40.0155V41.4845H40.8975V40.565H41.7795V41.9443H39.1475V37.5Z" fill="#003A86"/>
<path d="M45.6015 38.1556C45.6015 37.7794 46.2035 37.459 46.9175 37.459C47.6315 37.459 48.2335 37.7655 48.2335 38.1556V41.3042C48.2335 41.6804 47.6455 42.0008 46.9175 42.0008C46.1895 42.0008 45.6015 41.6943 45.6015 41.3042V38.1556ZM47.3515 37.9605H46.4695V41.4853H47.3515V37.9605Z" fill="#003A86"/>
<path d="M52.8255 37.9598H51.9435V37.5H54.5755V37.9598H53.6935V41.9443H52.8255V37.9598Z" fill="#003A86"/>
<path d="M58.7055 37.9598H57.8375V37.5H60.4695V37.9598H59.5875V41.9443H58.7055V37.9598Z" fill="#003A86"/>
<path d="M66.8115 37.9598H65.0475V39.4923H66.3635V39.952H65.0475V41.4845H66.8115V41.9443H65.0475C64.5575 41.9443 64.1655 41.7353 64.1655 41.4845V37.9598C64.1655 37.709 64.5575 37.5 65.0475 37.5H66.8115V37.9598Z" fill="#003A86"/>
<path d="M70.6335 37.5H72.3976C72.8876 37.5 73.2795 37.709 73.2795 37.9598V39.3669C73.2795 39.5759 73.0976 39.6594 72.8876 39.7152C73.0976 39.757 73.2795 39.8545 73.2795 40.1331V41.6238C73.2795 41.7492 73.3775 41.8468 73.4895 41.9582H72.5795C72.4815 41.8607 72.3976 41.7353 72.3976 41.6238V39.952H71.5155V41.9443H70.6335V37.5ZM71.5155 39.4923H72.3976V37.9598H71.5155V39.4923Z" fill="#003A86"/>
<path d="M78.1795 39.966C77.8995 39.9102 77.6895 39.8266 77.5355 39.7152C77.3815 39.5898 77.2975 39.4644 77.2975 39.3111V37.5H78.1795V39.5062H79.0615V37.5H79.9435V39.3111C79.9435 39.4505 79.8595 39.5898 79.7055 39.7152C79.5515 39.8266 79.3415 39.9102 79.0615 39.966V41.9582H78.1795V39.966Z" fill="#003A86"/>
<path d="M40.9115 8.22852H2.27155V32.2611H40.9115V8.22852Z" fill="#F7B000"/>
<path d="M9.73356 14.9994C9.73356 14.9855 9.63556 15.0134 9.63556 14.9994C9.25756 12.7285 8.90756 10.4855 8.55756 8.22852H6.02356C6.05156 8.40963 6.09356 8.60468 6.12156 8.78579C6.17756 9.0505 6.33156 9.28734 6.41556 9.64957C7.08756 12.5613 7.87156 16.1558 8.51556 19.1511C9.52356 23.4143 10.5316 27.7889 11.5116 32.2611H12.6736C11.9876 28.4298 11.3156 24.696 10.6436 21.0598C10.2936 19.0536 10.0136 16.9778 9.73356 14.9994Z" fill="#F39800"/>
<path d="M13.3315 12.3252C13.2335 11.0713 13.0235 9.59456 12.8975 8.27103V8.24316H10.6015C10.7695 9.46917 10.9235 10.5698 11.1895 11.559C11.6375 14.6797 12.2675 18.4274 12.9395 22.0218C13.4855 25.4351 14.0315 28.8485 14.5635 32.2757H15.6275C14.9135 26.3268 14.2415 20.5311 13.6115 14.9444C13.5275 14.1085 13.3875 13.1611 13.3315 12.3252Z" fill="#F39800"/>
<path d="M4.20355 26.0756C4.02155 26.2428 4.03554 25.5323 3.96555 25.2954C3.76955 24.6406 3.47555 24.0555 3.27955 23.3868C2.95755 22.2861 2.62155 21.1159 2.27155 19.9316V25.6716C3.08355 27.8589 3.88155 30.0462 4.69355 32.2614H5.99554C5.54754 30.8125 5.12754 29.3775 4.69355 27.7196C4.46955 27.232 4.23155 26.6608 4.20355 26.0756Z" fill="#F39800"/>
<path d="M21.1995 16.1279C21.2835 14.0103 21.1995 11.3493 21.1435 9.90035C21.1575 9.357 21.1575 8.79972 21.1715 8.22852H19.0015C19.1415 10.9731 19.2675 13.7177 19.4075 16.3787C19.4915 16.8942 19.5335 17.3121 19.5615 17.7579C19.8415 22.4391 20.0935 27.2595 20.3175 32.2471H21.2975C21.2415 26.8833 21.1995 21.7843 21.1715 16.9778C21.1435 16.7548 21.1855 16.3508 21.1995 16.1279Z" fill="#F39800"/>
<path d="M4.81955 12.5899C4.58155 10.8763 4.13355 9.5667 3.89555 8.24316H2.27155V11.9212C2.35555 12.2834 2.45355 12.6456 2.59355 13.1054C2.76155 13.7184 3.05555 14.2618 3.22355 14.833C3.36355 15.3206 3.44755 16.2679 3.61555 16.1286C3.51755 16.4909 3.65755 16.2819 3.65755 16.2958C3.74155 16.5466 3.72755 16.881 3.81155 17.1596C3.89555 17.4382 4.07755 17.6611 4.14755 17.9398C4.52555 19.2772 4.83355 20.6565 5.21155 21.994C5.96755 24.6271 6.83555 27.1488 7.59155 29.8516C7.81555 30.6457 8.03955 31.4398 8.24955 32.2339H9.49555C9.31355 31.4398 9.13155 30.6457 8.94954 29.8516C7.38155 23.9026 6.45755 18.8593 4.81955 12.5899Z" fill="#F39800"/>
<path d="M17.3075 11.4614C17.2375 10.4444 17.2235 9.4831 17.1675 8.70292C17.1535 8.49394 17.0975 8.32676 17.0975 8.24316H14.8295C15.1655 11.0435 15.4875 13.6069 15.8095 16.3097C15.6835 16.9088 15.9775 17.1039 15.8515 17.689C16.2855 20.0296 16.3975 23.011 16.6775 25.3794C16.9435 27.6225 17.1955 29.9212 17.4475 32.2618H18.4415C18.3015 29.9491 18.1615 27.6782 18.0355 25.463C17.7835 20.6565 17.6155 16.1286 17.3075 11.4614Z" fill="#F39800"/>
<path d="M40.9115 15.5853V8.24316H40.3935C39.4695 12.3252 38.4895 16.5605 37.5375 20.7819C36.7395 24.2927 35.7735 28.2076 34.8495 32.2479H36.1095C37.1035 28.737 38.1115 25.2819 39.0915 21.9104C39.7355 19.6255 40.3375 17.5497 40.9115 15.5853Z" fill="#F39800"/>
<path d="M40.9116 23.6377C40.5476 24.8916 40.1836 26.1594 39.8056 27.4272C39.7216 27.5108 39.6516 27.6222 39.6096 27.7755C39.1756 29.2383 38.7136 30.729 38.2656 32.2337H39.6656C40.0856 31.0634 40.4916 29.9071 40.9116 28.7646V23.6377Z" fill="#F39800"/>
<path d="M25.2596 8.22852H23.0616C23.0616 9.45452 23.0896 10.792 23.1456 12.3106C23.1036 12.3245 23.0616 12.3106 23.0476 12.3942C22.9496 14.1635 23.0476 16.2394 23.0476 17.9251C23.0616 23.1775 23.1316 25.9778 23.0616 31.5784C23.0616 31.8013 23.0616 32.0242 23.0476 32.2332H24.0976C24.3496 27.0087 24.6016 21.9654 24.8396 17.0474C24.9936 14.066 25.1336 10.987 25.2596 8.22852Z" fill="#F39800"/>
<path d="M35.6895 8.22852C35.6755 8.25638 35.6755 8.29817 35.6615 8.32604C35.3955 10.6666 35.0035 12.0319 34.7935 14.1217C34.5835 14.7069 34.5555 15.1387 34.4995 15.8493C34.4575 15.8771 34.4015 15.8493 34.4015 15.9329C33.9395 19.374 33.2255 22.648 32.7075 26.3957C32.3715 28.2765 32.0215 30.227 31.6715 32.2332H32.7915C34.6395 23.8462 36.4595 15.7796 38.1955 8.22852H35.6895Z" fill="#F39800"/>
<path d="M31.3635 8.22878C31.1255 10.2768 30.8735 12.4362 30.6775 14.9858C30.0895 20.5028 29.4175 26.2567 28.6895 32.2335H29.7535C31.0835 23.9579 32.3995 16.0028 33.7155 8.21484H31.3635V8.22878Z" fill="#F39800"/>
<path d="M29.4456 8.22852H27.1915C26.9955 12.3106 26.7016 16.5877 26.4636 21.0319C26.2676 24.6821 26.0575 28.4019 25.8195 32.2332H26.8836C27.4016 27.0087 27.9336 21.8818 28.4656 16.7131C28.7876 13.9267 29.1236 11.1124 29.4456 8.22852Z" fill="#F39800"/>
<path d="M50.5575 19.4029V19.9045C50.9075 19.5144 51.3135 19.3193 51.7615 19.3193C52.0135 19.3193 52.2375 19.389 52.4475 19.5144C52.6575 19.6398 52.8255 19.8209 52.9375 20.0299C53.0495 20.2528 53.1055 20.6011 53.1055 21.0887V23.3596H52.3215V21.1026C52.3215 20.6986 52.2655 20.406 52.1395 20.2388C52.0135 20.0717 51.8035 19.9741 51.5095 19.9741C51.1315 19.9741 50.8235 20.1553 50.5575 20.5314V23.3596H49.7455V19.4029H50.5575Z" fill="#F8B856"/>
<path d="M56.1155 19.3887C56.7175 19.3887 57.2215 19.5837 57.6275 19.9738C58.0335 20.3639 58.2295 20.8515 58.2295 21.4367C58.2295 22.0079 58.0335 22.4816 57.6135 22.8577C57.2075 23.2339 56.6895 23.4289 56.0735 23.4289C55.4715 23.4289 54.9815 23.2339 54.5755 22.8577C54.1695 22.4816 53.9735 21.9939 53.9735 21.4227C53.9735 20.8376 54.1695 20.3639 54.5755 19.9738C54.9955 19.5837 55.4995 19.3887 56.1155 19.3887ZM56.0735 20.0992C55.6955 20.0992 55.3875 20.2246 55.1355 20.4754C54.8975 20.7261 54.7715 21.0326 54.7715 21.4227C54.7715 21.7989 54.8975 22.1054 55.1495 22.3562C55.4015 22.593 55.7095 22.7184 56.1015 22.7184C56.4935 22.7184 56.8015 22.593 57.0535 22.3562C57.3055 22.1193 57.4175 21.7989 57.4175 21.4227C57.4175 21.0466 57.2915 20.7401 57.0255 20.4893C56.7875 20.2246 56.4515 20.0992 56.0735 20.0992Z" fill="#F8B856"/>
<path d="M58.5375 20.03L60.0215 18.5811V19.403H61.2815V20.1136H60.0215V22.0501C60.0215 22.4959 60.2175 22.7328 60.5955 22.7328C60.8755 22.7328 61.1835 22.6352 61.4915 22.4541V23.1925C61.1835 23.3597 60.8615 23.4433 60.4975 23.4433C60.1335 23.4433 59.8395 23.3318 59.5875 23.1229C59.5175 23.0532 59.4475 22.9835 59.4055 22.9139C59.3495 22.8303 59.3215 22.7328 59.2795 22.6074C59.2515 22.482 59.2235 22.2312 59.2235 21.8829V20.0996H58.5235V20.03H58.5375Z" fill="#F8B856"/>
<path d="M62.0375 17.3408H62.8215V19.9182C63.1575 19.5142 63.5635 19.3191 64.0395 19.3191C64.3055 19.3191 64.5435 19.3888 64.7535 19.5142C64.9635 19.6396 65.1175 19.8207 65.2295 20.0575C65.3275 20.2944 65.3835 20.6427 65.3835 21.1024V23.3594H64.5995V20.9074C64.5995 20.6148 64.5295 20.378 64.3895 20.2108C64.2495 20.0297 64.0535 19.9461 63.8155 19.9461C63.6475 19.9461 63.4795 19.9879 63.3255 20.0854C63.1715 20.169 63.0035 20.3222 62.8215 20.5312V23.3733H62.0375V17.3408Z" fill="#F8B856"/>
<path d="M66.8955 17.7305C67.0215 17.7305 67.1335 17.7723 67.2315 17.8698C67.3295 17.9534 67.3715 18.0648 67.3715 18.2042C67.3715 18.3295 67.3295 18.441 67.2315 18.5385C67.1475 18.636 67.0215 18.6778 66.8955 18.6778C66.7835 18.6778 66.6715 18.636 66.5735 18.5385C66.4895 18.441 66.4335 18.3435 66.4335 18.2181C66.4335 18.0927 66.4755 17.9952 66.5735 17.8977C66.6715 17.7723 66.7695 17.7305 66.8955 17.7305ZM66.5035 19.4023H67.2875V23.3729H66.5035V19.4023Z" fill="#F8B856"/>
<path d="M69.2196 19.3883V19.8898C69.5696 19.4997 69.9756 19.3047 70.4236 19.3047C70.6756 19.3047 70.8996 19.3744 71.1096 19.4997C71.3196 19.6251 71.4876 19.8062 71.5996 20.0291C71.7116 20.2521 71.7676 20.6004 71.7676 21.088V23.3589H70.9696V21.1019C70.9696 20.6979 70.9136 20.4053 70.7876 20.2381C70.6616 20.0709 70.4516 19.9734 70.1576 19.9734C69.7796 19.9734 69.4716 20.1545 69.2056 20.5307V23.3589H68.3936V19.3883H69.2196Z" fill="#F8B856"/>
<path d="M72.6635 20.7677C72.6635 20.3497 72.8175 20.0153 73.1255 19.7646C73.4335 19.5138 73.8535 19.4023 74.3995 19.4023H76.0375V20.0153H75.2395C75.3935 20.1686 75.5055 20.3079 75.5615 20.4472C75.6175 20.5726 75.6595 20.7259 75.6595 20.8931C75.6595 21.102 75.6035 21.2971 75.4775 21.5061C75.3515 21.7011 75.2115 21.8544 75.0155 21.9658C74.8335 22.0633 74.5255 22.1609 74.1055 22.2166C73.8115 22.2584 73.6575 22.3559 73.6575 22.5231C73.6575 22.6206 73.7135 22.6903 73.8255 22.746C73.9375 22.8017 74.1335 22.8714 74.4275 22.9271C74.9175 23.0386 75.2255 23.1222 75.3655 23.1779C75.5055 23.2336 75.6315 23.3172 75.7435 23.4426C75.9395 23.6376 76.0375 23.8745 76.0375 24.1531C76.0375 24.5293 75.8695 24.8358 75.5335 25.0587C75.1975 25.2816 74.7495 25.3931 74.1895 25.3931C73.6155 25.3931 73.1675 25.2816 72.8315 25.0587C72.4955 24.8358 72.3275 24.5293 72.3275 24.1531C72.3275 23.6098 72.6635 23.2754 73.3355 23.1082C73.0695 22.9411 72.9295 22.7739 72.9295 22.6067C72.9295 22.4813 72.9855 22.3698 73.0975 22.2584C73.2095 22.1609 73.3635 22.0773 73.5595 22.0355C72.9575 21.7568 72.6635 21.3389 72.6635 20.7677ZM73.9515 23.5401C73.6855 23.5401 73.4615 23.5958 73.3075 23.7073C73.1395 23.8188 73.0555 23.9581 73.0555 24.1392C73.0555 24.5432 73.4335 24.7522 74.1615 24.7522C74.5115 24.7522 74.7775 24.6965 74.9735 24.5989C75.1695 24.5014 75.2675 24.3482 75.2675 24.1671C75.2675 23.9859 75.1415 23.8327 74.9035 23.7212C74.6515 23.5958 74.3435 23.5401 73.9515 23.5401ZM74.1335 20.0711C73.9235 20.0711 73.7415 20.1407 73.5875 20.294C73.4335 20.4333 73.3635 20.6144 73.3635 20.8095C73.3635 21.0184 73.4335 21.1856 73.5875 21.311C73.7415 21.4503 73.9235 21.5061 74.1475 21.5061C74.3715 21.5061 74.5535 21.4364 74.7075 21.2971C74.8475 21.1578 74.9315 20.9906 74.9315 20.7816C74.9315 20.5726 74.8615 20.4054 74.7075 20.2661C74.5535 20.1407 74.3715 20.0711 74.1335 20.0711Z" fill="#F8B856"/>
<path d="M45.7415 23.6234L45.7835 23.5259L45.7275 23.3726L45.7835 23.3308L45.8675 23.4284L46.1335 23.1776L46.1615 23.2194L46.0355 23.5955L46.0495 23.6373L46.3155 23.5537L46.3575 23.6234L46.0635 23.8045L46.0495 23.8742H46.0915L46.5535 23.5955L46.5675 23.5677L47.2115 23.3448L47.1135 23.2194L47.2675 23.0104L47.3935 22.8293L47.4215 22.5506L47.3235 22.4392V22.2999L47.3515 22.2859V22.272L47.3655 22.2163L47.3515 22.1606V22.0909V22.0352L47.3795 21.9934L47.3935 21.9794V21.9516L47.4075 21.9237L47.4355 21.868L47.4495 21.8123L47.5195 21.6869L47.5475 21.6451V21.6172L47.5615 21.5754L47.5475 21.5336L47.5615 21.5058L47.5755 21.4779V21.45V21.4222H47.5615L47.5475 21.3943L47.5615 21.3525L47.5895 21.3386L47.6035 21.3107L47.5475 21.0739L47.5055 21.0321V21.0042L47.4915 20.9624L47.4495 20.9206L47.4215 20.9067L47.4075 20.8928L47.3935 20.8788L47.4075 20.851L47.4355 20.8092L47.4495 20.7813L47.3935 20.7256L47.3655 20.6559L47.3235 20.642L47.3375 20.5862L47.3515 20.5723L47.3375 20.5584L47.2955 20.5445L47.2675 20.5305L47.2395 20.4748L47.2115 20.4469L47.2255 20.4191L47.2395 20.4051V20.3912L47.2255 20.3633V20.3355V20.3076H47.2675V20.2658L47.2395 20.2379L47.2255 20.1962V20.1404L47.2115 20.1265L47.1695 20.0847L47.1835 20.0429L47.1275 20.0011L47.0575 19.9175L47.0015 19.8339L46.9315 19.7921L46.9455 19.4996V19.1931V18.7054V18.4268V18.2039V17.7859L46.9315 17.368L46.9175 17.3401L46.9035 17.3262L46.8615 17.3401H46.8335H46.8195L46.7635 17.3122V17.2983L46.7215 17.3122V17.3262L46.7075 17.354H46.6795L46.6655 17.3401L46.6375 17.354L46.6235 17.3819L46.5535 17.368L46.5115 17.3819L46.4975 17.354L46.4835 17.3401L46.4415 17.3262L46.4275 17.2983L46.4135 17.2844L46.3995 17.2287L46.3855 17.2147L46.3295 17.2287L46.2875 17.1869L46.0775 17.1033L45.8815 17.0336L45.5595 16.741L45.4615 16.7271L45.3495 16.8386L45.2515 16.8804L45.0975 16.8525L45.0555 16.7689L44.7755 16.8386L44.7335 16.9082L44.6635 16.8943L44.3135 16.9918L44.2855 17.0754L44.1035 17.1033L44.0755 17.1729L44.0195 17.1451L43.9355 17.0615L43.7255 16.9918L43.7815 16.9222L43.7675 16.8804L43.6695 16.8386L43.5855 16.9918L43.5015 16.9361L43.4315 16.95L43.3615 16.7689H43.3195L43.2775 16.8804L43.2075 16.9779L43.1095 16.9361V17.1311L43.0255 17.159L43.0115 16.9918L43.0255 16.9082L42.9555 16.8386L42.8995 16.9361L42.8295 16.9222L42.7735 17.0197L42.6895 16.9779L42.6475 16.8386L42.6055 16.8525L42.5775 16.8386L42.4795 16.755L42.3815 16.7271L42.1855 16.9639L42.0315 16.8525L42.0735 16.741L42.0035 16.6992L41.9475 16.7132L41.8635 16.5878L41.9055 16.5321L41.8355 16.4763L41.7375 16.5321L41.6535 16.5181L41.5975 16.4763L41.5275 16.4624L41.4715 16.5739L41.3595 16.6017L41.3035 16.4903L41.2335 16.4345L41.1355 16.4763L41.0655 16.5042L40.9955 16.4624H40.8975L40.8135 16.3788L40.5055 16.3649V16.1698L40.3655 16.0584L40.3375 16.0166L40.2535 16.0305L40.2395 16.128L40.1695 16.0723H40.0435L40.0015 16.128H39.8755L39.7215 15.933L39.5955 15.8355H39.5115L39.4835 15.5429V15.111V14.8742V14.5259V14.1915L39.4695 13.7875V13.5228V12.8401L38.7975 12.8262L38.3075 12.8401H38.1395H37.4535L36.9635 12.8262L36.7815 12.8401L35.7455 12.854H35.6755L35.6895 13.5367V14.0382L35.6755 14.2194L35.7035 14.8881L35.6895 15.2643V15.5708L35.6755 16.2256V16.2674V17.0057V17.4237V17.7023L35.6615 18.3711L35.6475 19.0398L35.6615 19.7364L35.6475 19.8479L35.3115 19.8618H34.8635H34.5555H34.4855H33.4355H33.3515H31.9935L31.5315 19.8897L31.2095 19.8618L31.3215 20.1962L31.7275 20.6977L31.8955 20.8092L32.0495 20.7813L32.2455 21.1157L32.3015 21.1853L32.3855 21.2271L32.4975 21.3246L32.7635 21.6451L33.2675 21.9655L33.2815 22.0212L33.3935 22.1188L33.4495 22.3974L33.6315 22.6342L33.6735 23.1219L33.8275 23.5119L34.3175 23.9438L34.7655 24.111V24.1946L35.1435 24.3479L35.1715 24.4454L35.3955 24.5708H35.6055L35.6615 24.3757L35.7455 24.2782L35.9135 24.1946L35.8855 24.111L35.9135 23.9856L35.9695 23.9717L36.1655 23.3726L36.5295 23.3169L36.5995 23.1776L36.9495 23.3169L37.3135 23.3308L37.4955 23.3587L37.5795 23.303L37.7755 23.3587L37.8175 23.5259L38.1955 23.8324L38.2375 23.9578L38.5035 24.1389L38.6575 24.3897L38.7415 24.7101H38.7695V24.7519L38.8815 25.0584L38.9375 25.0863V25.142L39.0495 25.2813L39.1195 25.5599L39.2595 25.7828L39.3995 25.8804L39.7355 26.4516L39.8755 26.6188L40.0995 26.7302V26.8417V27.1621L40.2115 27.2596V27.4965L40.1835 27.5522L40.2955 27.7612L40.4215 27.8866L40.5755 28.2906L40.6455 28.5832L41.0935 28.6946L41.1915 28.82L41.2755 28.8061L41.7375 29.0847L41.9335 29.1265L42.1855 29.0847L42.2835 29.1404H42.4655L42.5075 29.238L42.6335 29.2937L43.0815 29.2519L43.0955 29.1126L43.0815 29.0847L43.0535 29.1683L43.0115 29.1404L42.9695 29.1962L42.9555 29.0847L43.0115 29.029L42.9835 29.0151L42.9275 29.029L42.8995 28.8618L42.8435 28.8479L42.7875 28.5832L42.7175 28.2488L42.6475 27.9284L42.5635 27.8587L42.5775 27.6358L42.6615 27.5522L42.6335 27.4825L42.7175 27.399L42.7035 27.2318L42.5775 27.2736L42.4235 27.2596L42.3395 27.19L42.3955 27.1621L42.2695 26.9253L42.2975 26.9113L42.4515 27.1621H42.4935H42.5075L42.4935 27.1064H42.5495L42.5915 26.981H42.6335L42.6195 27.1064L42.5635 27.1482L42.6195 27.176L42.7315 27.0507L42.7735 26.9392L42.8015 26.8974L42.8435 26.7581L42.8995 26.6048L42.8855 26.5212L42.8155 26.6188L42.7875 26.6048L42.8155 26.5212L42.7595 26.4376L42.7875 26.3262H42.9555L43.0955 26.2426L42.9415 25.964L43.1795 25.7689L43.2355 25.8246L43.3055 25.8107L43.2915 25.6714L43.3755 25.6575L43.3335 25.8246L43.5015 25.7271L43.5155 25.5878V25.3788V25.3092L43.6135 25.4206L43.6275 25.5042L43.6695 25.5321L43.9635 25.351L43.9355 25.2674L43.8235 25.3092L43.7955 25.2674L43.8655 25.2116L43.8095 25.142L43.6975 25.1559L43.7255 25.0863L43.6835 24.9191L43.9355 25.0305L43.9495 25.0863L43.9215 25.1559L44.0195 25.0863V24.9191L44.1175 25.0166L44.2575 24.9191L44.1875 25.1141L44.2295 25.142L44.7615 24.8355L44.8175 24.8633L44.0335 25.4067L44.0755 25.4206L45.0835 24.7519L45.5175 24.4454L45.5735 24.3479L45.4895 24.2921L45.5735 24.1389L45.6715 24.1528L45.8675 23.9856L45.8815 23.8324L45.8255 23.7627L45.8535 23.6791L45.7415 23.6234Z" fill="#231815"/>
<path d="M39.6655 18.7051C40.2115 18.7051 40.6595 18.8862 41.0235 19.2624C41.3875 19.6385 41.5695 20.0983 41.5695 20.6555C41.5695 21.2128 41.3875 21.6726 41.0235 22.0348C40.6595 22.411 40.2115 22.5921 39.6655 22.5921C39.1195 22.5921 38.6715 22.411 38.2935 22.0348C37.9295 21.6726 37.7475 21.1989 37.7475 20.6555C37.7475 20.0983 37.9295 19.6385 38.2935 19.2624C38.6575 18.9001 39.1195 18.7051 39.6655 18.7051ZM39.6655 22.2159C40.0855 22.2159 40.4495 22.0627 40.7295 21.7701C41.0095 21.4775 41.1495 21.1014 41.1495 20.6555C41.1495 20.2097 41.0095 19.8475 40.7155 19.541C40.4355 19.2484 40.0855 19.0952 39.6655 19.0952C39.2455 19.0952 38.8815 19.2484 38.6015 19.541C38.3215 19.8336 38.1675 20.2097 38.1815 20.6555C38.1815 21.1014 38.3215 21.4636 38.6015 21.7701C38.8815 22.0627 39.2455 22.2159 39.6655 22.2159Z" fill="#FCF8FA"/>
<path d="M45.0555 19.1509L44.8175 19.5271C44.5095 19.2484 44.2435 19.0952 44.0615 19.0952C43.6835 19.0952 43.2775 19.4574 42.8575 20.1679V22.5224H42.4515V18.7747H42.8575V19.7639H42.8715C43.3195 19.0534 43.7535 18.7051 44.1875 18.7051C44.4395 18.7051 44.7335 18.8583 45.0555 19.1509Z" fill="#FCF8FA"/>
<path d="M8.13755 25.3099H4.31555L7.31155 16.7139H12.7576L15.7535 25.2959H11.9316L11.4276 23.847H8.62755L8.13755 25.3099ZM9.34155 21.8269H10.7556L10.0416 19.6953L9.34155 21.8269Z" fill="#003A86"/>
<path d="M16.6075 25.2959V16.7139H20.4295V23.1504L23.7895 23.1365V25.2959H16.6075Z" fill="#003A86"/>
<path d="M24.6995 25.2962V16.7141L28.5215 16.7002V23.1367H31.8675V25.2962H24.6995Z" fill="#003A86"/>
<path d="M3.75553 7.00272L3.32153 7.68538C3.15353 7.90829 3.32153 8.06154 3.32153 8.06154L3.90953 8.96712V9.02284L3.55953 8.92532L2.84553 8.79993L2.63553 8.73027C2.39753 9.16216 2.21553 9.32935 2.21553 9.32935L1.99153 9.71944L1.94953 9.69158C1.82353 9.07857 1.79553 8.56309 1.79553 8.56309L1.78153 8.52129L1.61353 8.46557L0.773526 7.85256C0.745526 7.81077 0.801526 7.7829 0.801526 7.7829C1.13753 7.62965 1.73953 7.39281 1.73953 7.39281C1.71153 6.8216 1.72553 6.33398 1.72553 6.33398L1.87953 6.44544L2.62153 7.19776C3.39153 7.15597 3.75553 7.00272 3.75553 7.00272Z" fill="#FCF8FA"/>
<path d="M80.7555 7.15675L80.3215 7.83942C80.1535 8.06233 80.3215 8.21558 80.3215 8.21558L80.9095 9.12115V9.16295L80.5595 9.06543L79.8315 8.95397L79.6215 8.88431C79.3835 9.3162 79.2015 9.48338 79.2015 9.48338L78.9775 9.87348L78.9355 9.85955C78.8095 9.24654 78.7815 8.73106 78.7815 8.73106L78.7675 8.68927L78.6135 8.63354L77.7735 8.02053C77.7455 7.97874 77.8015 7.95087 77.8015 7.95087C78.1375 7.79762 78.7395 7.56078 78.7395 7.56078C78.7115 6.98957 78.7255 6.50195 78.7255 6.50195L78.8795 6.61341L79.6215 7.36573C80.3775 7.29607 80.7555 7.15675 80.7555 7.15675Z" fill="#FCF8FA"/>
<path d="M80.7555 31.1053L80.3215 31.7879C80.1535 32.0108 80.3215 32.1641 80.3215 32.1641L80.9095 33.0697V33.1254L80.5595 33.0279L79.8455 32.9025L79.6355 32.8328C79.3975 33.2786 79.2155 33.4319 79.2155 33.4319L78.9915 33.822L78.9495 33.7941C78.8235 33.1811 78.7955 32.6656 78.7955 32.6656L78.7815 32.6238L78.6275 32.5681L77.7875 31.9551C77.7595 31.9133 77.8155 31.8854 77.8155 31.8854C78.1515 31.7322 78.7535 31.4953 78.7535 31.4953C78.7255 30.9241 78.7395 30.4365 78.7395 30.4365L78.8935 30.548L79.6355 31.3003C80.3775 31.2446 80.7555 31.1053 80.7555 31.1053Z" fill="#FCF8FA"/>
<path d="M3.33555 31.105L2.90155 31.7877C2.73355 32.0106 2.90155 32.1638 2.90155 32.1638L3.48955 33.0694V33.1251L3.13955 33.0276L2.42555 32.9022L2.21555 32.8326C1.97755 33.2784 1.79555 33.4316 1.79555 33.4316L1.57155 33.8217L1.52955 33.7939C1.40355 33.1809 1.37555 32.6654 1.37555 32.6654L1.36155 32.6236L1.20755 32.5678L0.367551 31.9688C0.339551 31.927 0.395551 31.8991 0.395551 31.8991C0.731551 31.7459 1.33355 31.509 1.33355 31.509C1.30555 30.9378 1.31955 30.4502 1.31955 30.4502L1.47355 30.5617L2.21555 31.314C2.97155 31.2443 3.33555 31.105 3.33555 31.105Z" fill="#FCF8FA"/>
<path d="M84.0035 7.22609C84.0035 7.46293 83.9195 7.67191 83.7515 7.83909C83.5835 8.00627 83.3875 8.08986 83.1355 8.08986C82.8975 8.08986 82.7015 8.00627 82.5195 7.83909C82.3515 7.67191 82.2675 7.47686 82.2675 7.22609C82.2675 6.98924 82.3515 6.78026 82.5195 6.61308C82.6875 6.4459 82.8835 6.3623 83.1355 6.3623C83.3735 6.3623 83.5695 6.4459 83.7515 6.61308C83.9195 6.78026 84.0035 6.98924 84.0035 7.22609ZM83.8075 7.22609C83.8075 7.04497 83.7375 6.89172 83.6115 6.7524C83.4855 6.61308 83.3315 6.54342 83.1495 6.54342C82.9675 6.54342 82.8135 6.61308 82.6875 6.7524C82.5615 6.89172 82.4915 7.04497 82.4915 7.22609C82.4915 7.4072 82.5615 7.56045 82.6875 7.69977C82.8135 7.83909 82.9675 7.90875 83.1495 7.90875C83.3315 7.90875 83.4855 7.83909 83.6115 7.69977C83.7375 7.57438 83.8075 7.4072 83.8075 7.22609ZM83.2475 7.68584V7.51865C83.2475 7.44899 83.2335 7.39327 83.2055 7.35147C83.1775 7.30968 83.1495 7.28181 83.1075 7.28181H83.0515V7.68584H82.9395H82.8275V6.76633H83.1915C83.2895 6.76633 83.3595 6.78026 83.4155 6.82206C83.4575 6.86385 83.4855 6.90565 83.4855 6.96138V7.00317V7.04497C83.4855 7.1007 83.4715 7.14249 83.4435 7.17036C83.4155 7.19822 83.3875 7.22608 83.3455 7.24002C83.4155 7.26788 83.4575 7.32361 83.4855 7.37933C83.4995 7.43506 83.5275 7.49079 83.5275 7.54652V7.69977H83.2475V7.68584ZM83.2755 7.04497V7.03104V7.01711C83.2755 6.98924 83.2615 6.96138 83.2475 6.94745C83.2335 6.93351 83.2055 6.91958 83.1775 6.91958H83.1215H83.0515V7.17036H83.1775C83.2055 7.17036 83.2335 7.15642 83.2475 7.14249C83.2615 7.11463 83.2755 7.08677 83.2755 7.04497Z" fill="#231815"/>
</svg>
