<svg width="61" height="48" viewBox="0 0 61 48" fill="none" xmlns="http://www.w3.org/2000/svg">
<path d="M18.4388 40.791C18.0118 43.3416 24.5233 44.9409 33.2518 44.3914C35.3867 44.252 37.4641 43.9977 39.3856 43.6615C39.0571 43.6861 38.7122 43.7107 38.3838 43.7353C34.6641 43.9731 22.372 44.8671 18.4388 40.791Z" fill="#E72D18"/>
<path d="M24.2113 38.4057C24.5808 37.1263 26.6172 35.8468 29.6225 34.8135L24.2688 35.5516C21.3866 36.5768 19.4406 37.8152 19.0793 39.07C18.3157 41.719 24.9257 43.4085 33.8512 42.8426C35.9861 42.7114 38.0636 42.4489 39.9932 42.1127C39.6566 42.1373 39.3199 42.1619 38.9832 42.1865C30.0577 42.7442 23.4476 41.0547 24.2113 38.4057Z" fill="#FFE800"/>
<path d="M50.1505 31.9834L45.3059 32.6477C50.561 33.0086 53.9194 34.4438 53.3775 36.4203C52.8191 38.4379 48.3851 40.439 42.5715 41.5298C50.6267 40.8245 57.5323 38.2984 58.2385 35.7478C58.7722 33.7795 55.4138 32.3443 50.1505 31.9834Z" fill="#FFE800"/>
<path d="M30.575 36.9455L30.7638 38.922L30.8213 38.9138L31.355 36.8388L32.521 36.6748L32.1597 40.8985L31.2729 41.0215L31.5192 38.5201L31.4618 38.5283L30.8706 41.0789L30.345 41.1527L30.1726 38.7087L30.1151 38.7169L29.9427 41.2102L29.0477 41.3332L29.409 37.1095L30.575 36.9455Z" fill="#E72D18"/>
<path d="M34.3521 36.9375L34.3111 37.4214L33.7856 37.4952L33.7034 38.4383L34.229 38.3645L34.1879 38.8566L33.6624 38.9304L33.5556 40.2262L34.0812 40.1524L34.0401 40.6445L32.636 40.8331L32.948 37.1343L34.3521 36.9375Z" fill="#E72D18"/>
<path d="M35.7644 36.7237C36.6513 36.6007 36.758 36.7073 36.7087 37.3306L36.6677 37.8801L35.7891 38.0031L35.8466 37.3634C35.8548 37.2568 35.8384 37.2076 35.7152 37.224C35.592 37.2404 35.5674 37.306 35.5592 37.4044L35.3539 39.8484C35.3457 39.955 35.3703 39.996 35.4935 39.9796C35.6166 39.9632 35.6413 39.9058 35.6413 39.8074L35.707 39.0036L35.5756 39.0201L35.6166 38.528L36.6266 38.3885L36.4624 40.3077L36.1011 40.3569L35.9697 40.16C35.7562 40.3733 35.551 40.4553 35.1979 40.5045C34.5985 40.5865 34.4424 40.4061 34.4753 39.9714L34.6806 37.6012C34.7298 36.9861 34.8448 36.8467 35.7644 36.7237Z" fill="#E72D18"/>
<path d="M38.08 37.1504H38.1046L38.0964 38.8153L37.8008 38.8563L38.08 37.1504ZM37.5709 36.4943L36.758 40.2669L37.6038 40.1521L37.7351 39.3566L38.0964 39.3074V40.0865L38.9504 39.9717L38.7451 36.3467L37.5709 36.4943Z" fill="#E72D18"/>
<path d="M40.4366 36.5763C40.7158 36.5271 40.7158 36.5763 40.6912 36.7732L40.6091 37.7409C40.5926 37.9296 40.5844 37.9788 40.3134 38.0034L40.4366 36.5763ZM39.5991 36.2155L39.287 39.9143L40.1574 39.7913L40.2724 38.4872L40.4695 38.4626C41.3234 38.3478 41.422 38.1838 41.4794 37.5769L41.5533 36.6912C41.6026 36.076 41.5123 35.953 40.6665 36.0678L39.5991 36.2155Z" fill="#E72D18"/>
<path d="M42.8753 35.7559L42.6044 38.9708L43.1217 38.897L43.0806 39.3891L41.6847 39.5777L41.9967 35.8789L42.8753 35.7559Z" fill="#E72D18"/>
<path d="M44.584 35.5186L44.2718 39.2174L43.3926 39.3404L43.7049 35.6416L44.584 35.5186Z" fill="#E72D18"/>
<path d="M46.4226 35.2637L46.3815 35.7476L45.856 35.8214L45.7739 36.7645L46.2994 36.6907L46.2583 37.1746L45.7328 37.2484L45.6261 38.5524L46.1434 38.4786L46.1105 38.9625L44.7064 39.1593L45.0184 35.4605L46.4226 35.2637Z" fill="#E72D18"/>
<path d="M47.8595 35.0919C48.1798 35.0345 48.1716 35.0919 48.1551 35.3133L48.0894 36.1252C48.073 36.3139 48.0073 36.3631 47.7528 36.3877L47.8595 35.0919ZM46.907 34.6818L46.5457 38.9055L47.5475 38.7661L47.6953 37.011C47.9252 36.9618 48.0073 36.9946 47.9991 37.1504L47.8677 38.7169L48.8613 38.5774L48.9845 37.1422C49.0173 36.7895 48.9434 36.6091 48.5821 36.5517C49.0009 36.3549 49.0666 36.1416 49.0994 35.7644L49.1487 35.2149C49.2062 34.5506 49.0748 34.3783 48.1387 34.5096L46.907 34.6818Z" fill="#E72D18"/>
<path d="M34.4842 34.8779L34.476 35.0666L34.0898 35.1158L34.057 35.4848L34.4431 35.4274L34.4349 35.6161L34.0487 35.6653L33.9912 36.3542L33.3503 36.4444L33.4572 35.0256L34.4842 34.8779Z" fill="#E72D18"/>
<path d="M35.2229 35.4853L35.2393 35.2474C35.2393 35.2064 35.2557 35.19 35.3379 35.1736C35.4036 35.1654 35.4201 35.1818 35.4201 35.2228L35.4036 35.4607L35.2229 35.4853ZM35.2065 35.6411L35.9377 35.5345L35.9706 35.1408C35.987 34.9522 35.8473 34.9358 35.3461 35.0096C34.8203 35.0834 34.7052 35.1408 34.6888 35.3212L34.6395 36.043C34.6231 36.2234 34.7545 36.248 35.2557 36.1742C35.7816 36.1004 35.9131 36.043 35.9295 35.8625L35.9459 35.6493L35.3872 35.7313L35.3708 35.9445C35.3708 35.9773 35.3543 36.0019 35.2804 36.0184C35.2147 36.0266 35.1982 36.0102 35.1982 35.9691L35.2065 35.6411Z" fill="#E72D18"/>
<path d="M37.4149 35.8703L36.8565 35.9523L36.8647 35.9031C36.7744 35.9523 36.6512 35.9851 36.5199 36.0015C36.175 36.0507 36.1422 35.9605 36.1504 35.7965L36.1668 35.5997C36.175 35.5177 36.2325 35.4602 36.446 35.3864L36.914 35.2224L36.9304 35.0092C36.9304 34.9682 36.9222 34.9518 36.8483 34.9682C36.7826 34.9764 36.758 35.001 36.758 35.0338L36.7416 35.2142L36.1914 35.2962L36.1996 35.124C36.2161 34.9436 36.331 34.8862 36.8565 34.8123C37.3574 34.7385 37.497 34.7631 37.4888 34.9436L37.4149 35.8703ZM36.8073 35.452C36.7498 35.4684 36.7251 35.4931 36.7169 35.5177C36.7169 35.5259 36.7169 35.5341 36.7169 35.5341L36.7005 35.7555C36.7005 35.7965 36.7169 35.8129 36.7908 35.8047C36.8647 35.7965 36.873 35.7719 36.8812 35.7309L36.9058 35.411L36.8073 35.452Z" fill="#E72D18"/>
<path d="M38.3843 34.3291L38.3596 34.5915L38.5815 34.5587L38.565 34.7228L38.3514 34.7556L38.2939 35.5347V35.5429C38.2939 35.5839 38.3268 35.5921 38.4336 35.5757L38.5075 35.5675L38.4911 35.7315L38.261 35.7643C37.7598 35.8382 37.727 35.7725 37.7352 35.6085L37.7927 34.8458L37.6448 34.8704L37.6612 34.7064L37.8091 34.69L37.8256 34.4275L38.3843 34.3291Z" fill="#E72D18"/>
<path d="M39.3281 34.4513L39.2542 35.3863C39.2542 35.4191 39.2624 35.4437 39.3363 35.4273C39.402 35.4191 39.4266 35.3945 39.4266 35.3617L39.4923 34.4267L40.0425 34.3447L39.9521 35.5011L39.402 35.5749V35.5257C39.3117 35.5749 39.1967 35.6077 39.0818 35.6241C38.7205 35.6733 38.6712 35.5831 38.6876 35.4109L38.7533 34.517L39.3281 34.4513Z" fill="#E72D18"/>
<path d="M41.5788 34.5995L41.053 34.6733L41.0694 34.4273C41.0694 34.3945 41.053 34.3781 40.9872 34.3863C40.9133 34.3945 40.8968 34.4191 40.8968 34.4519L40.8311 35.3869L40.2806 35.4689L40.3628 34.3125L40.9133 34.2387V34.2879C41.0119 34.2387 41.1351 34.2059 41.2255 34.1895C41.5706 34.1403 41.6117 34.2387 41.6035 34.4027L41.5788 34.5995Z" fill="#E72D18"/>
<path d="M42.3995 33.7627L42.3913 33.9267L41.8408 34.0087L41.8572 33.8447L42.3995 33.7627ZM42.3749 34.0251L42.2927 35.1815L41.7422 35.2635L41.8244 34.1072L42.3749 34.0251Z" fill="#E72D18"/>
<path d="M43.8771 34.9519L43.327 35.0339L43.3926 34.099C43.3926 34.0662 43.3762 34.0498 43.3105 34.058C43.2366 34.0662 43.2202 34.0908 43.2202 34.1236L43.1463 35.0585L42.5962 35.1324L42.6783 33.976L43.2284 33.894V33.9432C43.327 33.894 43.4419 33.8611 43.5487 33.8447C43.91 33.7955 43.951 33.894 43.9428 34.058L43.8771 34.9519Z" fill="#E72D18"/>
<path d="M44.9446 33.8783L44.8953 34.5836C44.8953 34.6246 44.8789 34.641 44.7968 34.6492C44.7311 34.6574 44.7146 34.641 44.7146 34.6L44.7639 33.8947C44.7639 33.8619 44.7803 33.8372 44.8542 33.829C44.9363 33.829 44.9528 33.8455 44.9446 33.8783ZM44.961 33.706C44.8707 33.6814 44.7557 33.6814 44.6572 33.6978C44.2877 33.747 44.2302 33.8619 44.222 34.0259L44.1727 34.6492C44.1645 34.8132 44.1973 34.9116 44.5668 34.8624C44.6736 34.846 44.7885 34.8132 44.8871 34.764L44.8789 34.8706C44.8789 34.9034 44.8624 34.9198 44.7803 34.9362C44.7721 34.9362 44.7475 34.9444 44.7229 34.9444L44.1727 35.0182L44.1563 35.1823L44.8542 35.0839C45.2648 35.0264 45.4126 34.969 45.429 34.805L45.5193 33.583L44.9692 33.665L44.961 33.706Z" fill="#E72D18"/>
<path d="M56.0625 31.1719L55.1182 31.2703L53.4349 31.5983C56.859 31.9018 58.764 33.2468 58.8872 34.6657C59.0021 34.4852 59.0925 34.3048 59.1417 34.1244C59.4866 32.886 58.296 31.8526 56.0625 31.1719Z" fill="#E72D18"/>
<path d="M42.1363 9.88948L42.1445 9.88128L42.1281 9.86488V9.84027V9.80747V9.76646H42.1117L42.0953 9.75006V9.73365L42.0871 9.71725L42.0706 9.70085L42.0542 9.69265L42.046 9.68445V9.67625L42.0542 9.65984L42.0624 9.64344V9.63524L42.0378 9.60243L42.0296 9.57783L42.0132 9.56143V9.53682H42.0214L42.0132 9.52862L41.9967 9.52042L41.9803 9.51222L41.9721 9.48761L41.9557 9.47121L41.9639 9.46301L41.9721 9.45481V9.44661L41.9639 9.43841L41.9557 9.4138H41.9639L41.9721 9.4056V9.3892L41.9639 9.37279L41.9557 9.35639V9.33179L41.9475 9.31538L41.931 9.30718V9.28258L41.9146 9.25798L41.8818 9.22517L41.8654 9.18416L41.8325 9.16776V9.02014L41.8161 8.88071H41.8243L41.8079 8.65108V8.52806L41.7997 8.42144V8.2246L41.7832 8.02777L41.7668 8.01957V8.01137L41.7504 8.01957L41.734 8.01137H41.7258L41.7176 8.00317L41.7011 7.99497H41.6929V8.01137L41.6847 8.01957H41.6765L41.6683 8.01137L41.6601 8.01957L41.6519 8.02777L41.619 8.01957L41.6026 8.02777V8.01957L41.5944 8.00317L41.578 7.99497V7.98677L41.5615 7.97856V7.96216L41.5533 7.94576L41.5205 7.95396L41.5123 7.92936L41.4876 7.92115H41.4794H41.463V7.90475L41.4548 7.89655L41.4466 7.90475L41.4384 7.89655H41.4302L41.422 7.88015H41.4055L41.3973 7.86374H41.3727H41.3645L41.3398 7.84734L41.3152 7.80634L41.307 7.78173L41.2988 7.77353L41.2741 7.78173L41.2577 7.77353L41.2413 7.74893L41.2331 7.73252L41.2167 7.71612L41.2085 7.70792L41.1674 7.69972L41.151 7.71612L41.1428 7.74893H41.1346H41.1263L41.1017 7.75713L41.0853 7.76533L41.0689 7.75713H41.0442L41.0196 7.74893L41.0032 7.74072V7.70792H40.9868H40.9703L40.9539 7.72432L40.9293 7.74072L40.9211 7.73252L40.9129 7.74072H40.8882L40.88 7.74893L40.8882 7.77353L40.8718 7.76533L40.8472 7.75713L40.8225 7.76533L40.7979 7.75713L40.7897 7.78173H40.7815L40.7486 7.77353L40.724 7.78173L40.6994 7.78993L40.6912 7.83094L40.6747 7.83914H40.6583L40.6501 7.83094L40.6337 7.83914H40.6173L40.609 7.87195L40.6008 7.88015L40.5844 7.85554L40.568 7.83914L40.5516 7.82274H40.5351H40.5187V7.80634L40.5023 7.78993L40.4612 7.77353V7.75713L40.4695 7.74893L40.4777 7.74072V7.72432L40.4695 7.73252L40.453 7.72432V7.70792H40.4366L40.4284 7.72432L40.412 7.76533H40.4038L40.3873 7.75713L40.3709 7.74072H40.3463V7.74893L40.3299 7.74072L40.3217 7.67511L40.3134 7.65871L40.297 7.66691H40.2724L40.2806 7.71612L40.2477 7.74893L40.2395 7.74072L40.2231 7.73252H40.2149V7.74893L40.2313 7.76533L40.2149 7.77353L40.2231 7.80634L40.2149 7.82274L40.1985 7.83094H40.1821L40.1738 7.79813L40.1656 7.77353L40.1738 7.74893L40.1821 7.73252L40.1738 7.71612L40.1656 7.69972L40.1492 7.68332L40.141 7.69152L40.1246 7.72432L40.1164 7.71612H40.0999L40.0671 7.75713L40.0507 7.74893L40.0425 7.73252L40.0343 7.69972L40.0178 7.67511H40.0096L39.9932 7.66691L39.9768 7.68332L39.9686 7.67511V7.65051L39.9521 7.62591L39.9357 7.6177L39.9111 7.6095L39.9029 7.6177L39.8947 7.63411L39.8782 7.64231L39.87 7.65051L39.8618 7.67511L39.8454 7.69972L39.829 7.71612L39.8208 7.70792L39.8043 7.69972L39.7797 7.68332L39.7715 7.65871V7.65051L39.7797 7.62591L39.7879 7.6013L39.7797 7.5931L39.7551 7.5767L39.7387 7.5931L39.7222 7.5767L39.7058 7.55209V7.52749L39.714 7.50289L39.7058 7.48648L39.6976 7.47828L39.6894 7.47008L39.6812 7.48648L39.6648 7.49468H39.6483L39.6155 7.48648L39.5909 7.46188L39.5826 7.45368H39.5662L39.558 7.46188V7.47008L39.5498 7.51109L39.5416 7.50289L39.5334 7.51929H39.5087L39.5005 7.51109L39.4841 7.48648L39.4759 7.45368L39.4595 7.44548L39.4513 7.42907L39.4348 7.43727L39.4266 7.44548H39.402L39.3938 7.46188H39.3774L39.3692 7.44548L39.3527 7.43727L39.3281 7.42907H39.3035L39.287 7.41267L39.2788 7.38807L39.2542 7.37986L39.246 7.38807H39.2296H39.1967L39.1639 7.37986L39.1474 7.36346V7.35526L39.1557 7.30605L39.1474 7.28145H39.1392L39.131 7.26505L39.1146 7.24044L39.0982 7.23224L39.09 7.21584L39.0818 7.19944L39.0653 7.19123H39.0571L39.0489 7.19944V7.23224L39.0407 7.24864L39.0243 7.24044L39.0079 7.21584L38.9914 7.20764H38.9668L38.9586 7.21584L38.9504 7.23224H38.9422H38.9175H38.9011L38.8847 7.21584L38.8683 7.18303L38.8436 7.15023L38.8354 7.12562L38.819 7.11742L38.7944 7.09282L38.7862 7.08462L38.7697 7.07641H38.7451V6.93699V6.73196V6.62534V6.46131V6.30549V6.11686V5.99384V5.67398L38.4823 5.64118L38.2853 5.61657L38.2196 5.60837L37.9486 5.57557L37.7598 5.54276L37.6859 5.53456L37.2753 5.48535H37.2507L37.2342 5.797L37.226 6.02664V6.11686L37.2178 6.42851L37.2096 6.60074V6.74836L37.185 7.05181V7.06821L37.1768 7.41267L37.1686 7.6013L37.1603 7.73252L37.1521 8.04417L37.1357 8.35583L37.1193 8.67568L37.1111 8.73309L36.9715 8.71669L36.7908 8.67568L36.6595 8.65928H36.6348L36.1914 8.58546L36.1586 8.57726L35.592 8.47885L35.3867 8.44604L35.3539 8.42964L35.2636 8.41324L35.2553 8.42144V8.44604L35.2471 8.47885V8.50345L35.2718 8.54446L35.2964 8.57726L35.3128 8.59367L35.3375 8.61007L35.3703 8.61827L35.4031 8.66748L35.4114 8.71669L35.4196 8.75769L35.4442 8.7987L35.4524 8.83971L35.477 8.85611L35.5017 8.88891L35.5263 8.90532H35.5509L35.5674 8.92172L35.5838 8.94632L35.6002 8.97913L35.6084 8.98733L35.6331 9.01193L35.6577 9.07755L35.6823 9.10215L35.7234 9.13496L35.7644 9.18416L35.7726 9.21697L35.7891 9.25798L35.8219 9.29898L35.863 9.35639L35.9205 9.4056L35.9533 9.4302L35.9779 9.44661L36.0026 9.47941L36.0272 9.51222L36.0518 9.52862H36.06L36.0683 9.53682L36.0765 9.56143L36.0929 9.58603L36.1175 9.61883L36.1257 9.66804L36.1339 9.73365V9.75006L36.1504 9.75826L36.1832 9.84847L36.1996 9.87308L36.2078 9.93049L36.1996 9.97149V10.0289L36.2078 10.1027L36.2243 10.1355L36.2407 10.1847L36.2489 10.1929L36.2571 10.2011L36.2735 10.2913L36.2817 10.3159L36.3064 10.3406L36.3228 10.357L36.3556 10.398L36.3721 10.4062L36.4049 10.4226L36.4213 10.4472L36.4378 10.4718L36.4542 10.5128L36.4706 10.5292L36.5117 10.562L36.5445 10.5948L36.5938 10.6194L36.6348 10.6358L36.6595 10.644L36.6677 10.6522L36.6595 10.6686V10.6768H36.6759L36.6923 10.6932L36.7087 10.7178L36.7416 10.7342L36.7744 10.7424L36.7908 10.7588L36.8237 10.767L36.8319 10.8162H36.8401L36.8729 10.849L36.8812 10.8572L36.8976 10.8408L36.9304 10.89L36.9386 10.8982L36.9715 10.89H36.9961L37.0125 10.9064L37.0208 10.89L37.029 10.8572L37.0454 10.8244L37.07 10.8162L37.0782 10.7834L37.0947 10.7752L37.1193 10.767L37.1357 10.7506H37.1521L37.1439 10.7096L37.1521 10.6932L37.1603 10.6604L37.1768 10.6522L37.185 10.6112V10.5866L37.1932 10.562L37.2014 10.5374L37.2096 10.5292L37.2178 10.5046V10.48L37.2342 10.4882V10.4636L37.2507 10.4472L37.2835 10.3898H37.2917L37.3081 10.398L37.3328 10.3898L37.3492 10.398L37.3574 10.3898L37.3656 10.3734L37.3903 10.398L37.4231 10.4062L37.4313 10.3898L37.4477 10.3324L37.4642 10.3242L37.497 10.3406L37.5216 10.3488L37.612 10.4144L37.6612 10.398L37.6776 10.4226L37.7351 10.4308H37.7515L37.768 10.4472H37.7762H37.7844L37.8254 10.4636H37.8501L37.8665 10.4472L37.8829 10.439L37.8911 10.4472V10.4636H37.8993H37.9322L37.924 10.4882H37.9322H37.9404L37.9568 10.48H37.9732L37.9815 10.5456L37.9897 10.562H37.9979H38.0061L38.0143 10.5784L38.0061 10.603L38.0143 10.6194V10.6276L38.0225 10.6194L38.0307 10.603V10.5948V10.5866H38.0389L38.0471 10.603V10.6276L38.0389 10.644V10.6604L38.0636 10.6686L38.0882 10.6932L38.1211 10.7014L38.1375 10.7096L38.1457 10.7178L38.1621 10.7834L38.195 10.808L38.2196 10.8326L38.2442 10.849L38.2606 10.8736L38.2771 10.8818V10.8982L38.2853 10.9311L38.3017 10.9557L38.3263 10.9803L38.3345 11.0049L38.3428 11.0295L38.351 11.0951L38.3592 11.1279L38.3674 11.1525H38.3756L38.3838 11.1607V11.1771L38.392 11.2099L38.4084 11.2181L38.4249 11.2755V11.3083L38.4331 11.3247V11.3329L38.4577 11.3411V11.3657L38.4659 11.3739L38.4823 11.3821L38.4741 11.3985L38.4823 11.4149L38.4906 11.4313L38.4988 11.4395L38.507 11.4559L38.4988 11.4641L38.507 11.4805L38.5152 11.4969L38.5234 11.5216L38.5316 11.5462V11.5708L38.5398 11.5872L38.548 11.6036L38.5562 11.6282L38.5809 11.6528L38.5891 11.6774H38.5973H38.5891L38.6055 11.6938L38.6301 11.7184L38.6548 11.7348L38.6712 11.7676L38.6958 11.8086L38.704 11.8414L38.7205 11.8578H38.7287L38.7369 11.8742L38.7451 11.8988L38.7615 11.9316L38.7697 11.9726L38.7862 11.9972L38.7944 12.0136H38.8108L38.819 12.0382L38.8354 12.0628L38.8601 12.0956H38.8765L38.8929 12.1202L38.9093 12.112L38.9586 12.1531V12.1859V12.2105L38.975 12.2187V12.2515V12.2843V12.3171L38.9668 12.3335L38.9586 12.3581L38.975 12.3663V12.3827L39.0079 12.4073V12.4319V12.4975V12.5139L38.9914 12.5385L38.9996 12.5631L39.0161 12.5795L39.0325 12.5959V12.6287L39.0407 12.6369L39.0571 12.6533L39.0735 12.6861L39.0982 12.7025L39.1392 12.8092V12.842L39.1557 12.8666L39.1639 12.8994V12.924L39.1967 12.9814L39.1885 13.0142L39.1967 13.0306L39.2131 13.0388L39.2296 13.0306L39.2624 13.0388L39.2706 13.0552H39.287L39.3035 13.0716L39.3281 13.0634L39.3445 13.0798L39.3609 13.088L39.3856 13.0962L39.3938 13.1044L39.402 13.1208L39.4348 13.17H39.4513L39.4595 13.1618H39.4841V13.17L39.4923 13.1782L39.5005 13.17L39.5087 13.1782L39.5334 13.1946L39.5416 13.1864H39.5498L39.558 13.1946V13.211L39.5662 13.2192H39.5826L39.5909 13.2356L39.5991 13.2438L39.6155 13.2356V13.2438L39.6319 13.2766L39.6401 13.2684H39.6483V13.2766L39.6565 13.293L39.6894 13.3176L39.7058 13.3094L39.714 13.3176L39.7304 13.3258H39.7469H39.7633L39.7715 13.3423L39.7797 13.334L39.8043 13.3258H39.8208L39.829 13.334H39.8372H39.8865L39.9029 13.3423L39.9111 13.3505L39.9275 13.3423V13.3587H39.9439L39.9686 13.3669H39.9768H39.9932H40.0096L40.026 13.4161L40.0835 13.4489H40.0999H40.1082H40.1246H40.141H40.1492L40.1574 13.4571L40.1656 13.4489H40.1738V13.4571H40.1903H40.2067L40.2149 13.4489V13.4407H40.2231H40.2888L40.297 13.3751L40.2888 13.3587H40.2806L40.2724 13.3751V13.4079L40.2642 13.3833L40.2477 13.3915L40.256 13.4079L40.2395 13.4161L40.2313 13.3833V13.3587L40.2477 13.3505L40.256 13.3423L40.2477 13.3258H40.2313L40.2149 13.334L40.2067 13.3258L40.1985 13.3094V13.293L40.2067 13.2602L40.1821 13.2438L40.1903 13.2192V13.2028L40.1821 13.1946L40.1738 13.2028L40.1656 13.1864V13.1454L40.1574 13.129L40.1328 13.1126L40.1164 13.1044L40.1082 13.0552L40.1164 13.0306L40.1246 13.0142L40.1164 12.965L40.1082 12.9322L40.0917 12.8502L40.0835 12.8174L40.0589 12.801L40.0507 12.7846V12.7518V12.7271V12.7025V12.6861L40.0589 12.6779L40.0835 12.6615L40.0917 12.6533L40.0835 12.6369L40.0753 12.6123L40.0835 12.6041L40.0999 12.5877L40.1082 12.5795V12.5713V12.5385V12.4975H40.0917H40.0753L40.0671 12.5057L40.0507 12.5139L40.0343 12.4975H40.0178H40.0014H39.9768L39.9604 12.4893L39.9439 12.4811V12.4729L39.9686 12.4647L39.9768 12.4565L39.9686 12.4401L39.9521 12.4237V12.4073L39.9357 12.3827V12.3745L39.9111 12.3417L39.9193 12.3335L39.9275 12.3417L39.9604 12.3827L39.9686 12.4155L39.9932 12.4319L40.0014 12.4565H40.0096H40.0178L40.0096 12.4401L40.0178 12.4319H40.0425L40.0507 12.4155L40.0589 12.3991V12.3745H40.0671L40.0753 12.3827V12.4155V12.4401L40.0589 12.4483L40.0425 12.4565L40.0589 12.4647L40.0753 12.4729L40.0917 12.4565L40.0999 12.4483L40.1246 12.4155L40.1328 12.3663L40.1492 12.3499L40.1656 12.2843L40.1821 12.2351L40.1903 12.2187V12.1941L40.1821 12.1777V12.1859V12.1777L40.1738 12.1859L40.1574 12.2187H40.141L40.1328 12.2105L40.141 12.1941L40.1574 12.1859V12.1695L40.141 12.1613L40.1328 12.1367L40.1246 12.1202V12.1038L40.1328 12.0874L40.1164 12.0792L40.1082 12.0874H40.0917H40.0835L40.1328 12.0464H40.141L40.1574 12.0628H40.1821L40.1903 12.0546L40.2067 12.071L40.2149 12.0874L40.2313 12.0956V12.0874H40.2477L40.2724 12.0546L40.2231 11.9562L40.3299 11.866V11.8742L40.3463 11.866L40.3627 11.8578V11.8414V11.8332L40.3873 11.8168L40.3709 11.8578L40.3791 11.8742H40.4038L40.4202 11.8496L40.4448 11.8332L40.453 11.8086L40.4448 11.784L40.453 11.7676V11.7512L40.4941 11.7184L40.5023 11.7348L40.5105 11.743L40.5187 11.7512H40.5351L40.5598 11.7348L40.6008 11.7102L40.609 11.6938H40.6173H40.6337L40.6501 11.6692L40.6337 11.6364H40.609L40.5844 11.6446H40.5762L40.7076 11.5216H40.7158L40.7651 11.5133L40.7568 11.538V11.5462L40.7815 11.538V11.5462V11.5626L40.7486 11.5544V11.5708L40.7568 11.5872L40.7897 11.5708L40.8143 11.5626L40.8882 11.5133L40.9293 11.4887L40.9621 11.4805L40.9785 11.4641H40.995H41.0032H41.0114V11.4723L41.0032 11.4887L40.9375 11.5298L40.8882 11.538L40.8718 11.5626L40.8554 11.579L40.8225 11.5954L40.7568 11.6364L40.724 11.661L40.6994 11.6692L40.6829 11.6938V11.702L40.6912 11.7102L40.7076 11.6938L40.7404 11.6692L40.8225 11.6118L40.88 11.579L40.9539 11.5462L41.0196 11.5051L41.0771 11.4641L41.1263 11.4313L41.1346 11.4231L41.1674 11.4067L41.2002 11.3739L41.2249 11.3575L41.2577 11.3329L41.307 11.2919L41.3316 11.2509L41.3234 11.2427L41.2988 11.2509V11.2427L41.307 11.2345L41.3727 11.1689V11.1607V11.1689V11.1607L41.7258 10.9311L41.7422 10.9229L41.7504 10.9146L41.775 10.9064L41.9064 10.8408H41.9146L42.0049 10.8244H42.0132L41.9967 10.7998L41.9885 10.7916L41.9721 10.7752V10.7588L41.9803 10.7424L42.0049 10.7178L42.0214 10.685L42.0378 10.6604V10.644L42.0542 10.6276L42.0624 10.6112L42.0788 10.5866L42.0706 10.5702L42.0871 10.5292L42.0953 10.4964V10.48V10.4554L42.0706 10.4308L42.0542 10.4062L42.046 10.398V10.3406L42.0624 10.3324L42.0542 10.3159L42.0624 10.2995L42.0542 10.2667L42.046 10.2421V10.2175L42.0624 10.2011L42.0706 10.1929L42.0624 10.1765L42.0706 10.1601L42.0788 10.1355L42.0871 10.1027L42.1117 10.0535L42.1281 10.0371L42.1199 10.0207L42.1363 10.0043L42.1199 9.9879L42.1281 9.97149L42.1363 9.95509V9.94689V9.93869L42.1281 9.93049L42.1199 9.91408L42.1281 9.89768L42.1363 9.88948Z" fill="#003993"/>
<path d="M21.247 4.39395L20.5162 4.25452L20.5573 3.5L22.7415 3.93467L22.7086 4.67279L21.9778 4.53337L21.674 10.9714L20.935 10.8812L21.247 4.39395Z" fill="#003993"/>
<path d="M25.3444 5.18138L23.8828 4.90253L23.7679 7.32193L24.8682 7.50236L24.8353 8.22408L23.735 8.05185L23.6201 10.4713L25.0899 10.6599L25.057 11.3734L23.5872 11.193C23.1767 11.1438 22.8647 10.7829 22.8811 10.3728L23.1438 4.75491C23.1603 4.34484 23.5051 4.0824 23.9075 4.16441L25.3691 4.45146L25.3444 5.18138Z" fill="#003993"/>
<path d="M26.8389 8.18341L26.1655 4.62402L26.9045 4.77165L27.2002 6.57595C27.2248 6.73177 27.233 6.8794 27.2494 7.03522H27.2658C27.2905 6.8876 27.3151 6.74817 27.3562 6.60055L27.8078 4.94388L28.5468 5.0915L27.5861 8.29003L28.2676 11.7428L27.5204 11.6608L27.2166 9.88929C27.1919 9.73347 27.1755 9.59404 27.1673 9.43822H27.1427C27.118 9.58584 27.0934 9.72527 27.0524 9.87289L26.6007 11.5624L25.8535 11.4722L26.8389 8.18341Z" fill="#003993"/>
<path d="M30.5175 5.42755C29.9181 5.31274 29.4008 5.67359 29.3761 6.23129L29.1462 11.8492L29.8852 11.9312L30.0084 9.00334L30.7392 9.11816L30.6242 12.0132L31.3632 12.0953L31.5767 6.63315C31.5931 6.10007 31.1169 5.55057 30.5175 5.42755ZM30.7638 8.45385L30.033 8.33904L30.1233 6.09186L30.8541 6.23129L30.7638 8.45385Z" fill="#003993"/>
<path d="M32.2665 10.5449L33.0055 10.6433L32.9644 11.6275L33.7034 11.7095L33.7855 9.56896L33.0465 9.46235C32.636 9.40494 32.3239 9.06048 32.3404 8.69962L32.4143 6.7969C32.4307 6.25562 32.948 5.91116 33.5474 6.02598C34.1468 6.1408 34.6313 6.67388 34.6067 7.19057L34.582 7.88769L33.8512 7.76467L33.8841 6.7887L33.1533 6.64928L33.0712 8.80624L33.8102 8.92106C34.2125 8.98667 34.5328 9.32292 34.5163 9.67558L34.4506 11.5291C34.4342 12.054 33.9169 12.4312 33.3093 12.3656C32.7017 12.3 32.2172 11.7997 32.2418 11.2666L32.2665 10.5449Z" fill="#003993"/>
<path d="M43.2202 8.52734L43.7786 8.64216L43.6308 13.1939L44.1891 13.2595L44.222 12.218L44.7803 12.3L44.7311 13.8418L43.056 13.6614L43.2202 8.52734Z" fill="#003993"/>
<path d="M46.1516 9.09346C45.6918 8.99505 45.3059 9.26569 45.2976 9.69216L45.1909 13.1695C45.1745 13.5878 45.544 13.9733 46.012 14.0225C46.4718 14.0717 46.866 13.7764 46.8742 13.3664L46.9727 9.99561C46.9727 9.59375 46.6032 9.18368 46.1516 9.09346ZM46.2994 13.514L45.741 13.4484L45.856 9.58554L46.4144 9.69216L46.2994 13.514Z" fill="#003993"/>
<path d="M47.958 9.98737L47.3997 9.88075L47.4161 9.38867L49.083 9.72493L49.0666 10.1924L48.5082 10.094L48.4015 14.2275L47.8431 14.1701L47.958 9.98737Z" fill="#003993"/>
<path d="M50.0109 10.3729L49.4525 10.2663L49.4607 9.79883L51.1358 10.1269L51.1276 10.578L50.5692 10.4795L50.4789 14.4326L49.9123 14.3752L50.0109 10.3729Z" fill="#003993"/>
<path d="M53.1475 10.9471L52.0308 10.7421L51.998 12.2101L52.8355 12.3332L52.8273 12.7678L51.9898 12.653L51.9569 14.121L53.0818 14.2359L53.0736 14.6623L51.9487 14.5639C51.6367 14.5311 51.3903 14.3097 51.3985 14.0636L51.4724 10.6355C51.4807 10.3894 51.7352 10.2336 52.039 10.2992L53.1557 10.5125L53.1475 10.9471Z" fill="#003993"/>
<path d="M55.2004 14.5634L55.2168 13.2512C55.2168 13.0051 55.11 12.9149 54.9704 12.8575C55.11 12.8165 55.225 12.7591 55.225 12.5787L55.2414 11.3321C55.2414 11.1024 55.0033 10.881 54.6913 10.8236L53.5745 10.6104L53.5006 14.7192L54.059 14.7684L54.0918 12.9477L54.6502 13.0215L54.6256 14.5142C54.6256 14.6126 54.6831 14.7274 54.7405 14.8176L55.3153 14.8669C55.2578 14.7602 55.2004 14.67 55.2004 14.5634ZM54.6748 12.6033L54.1165 12.5213L54.1411 11.127L54.6995 11.2255L54.6748 12.6033Z" fill="#003993"/>
<path d="M56.276 13.2271C56.1036 13.1532 55.964 13.063 55.8655 12.9564C55.7669 12.8416 55.7177 12.7104 55.7177 12.5874L55.7423 11.0127L56.3006 11.1193L56.276 12.8416L56.8344 12.9154L56.859 11.2259L57.4174 11.3243L57.4009 12.8334C57.4009 12.9564 57.3435 13.063 57.2449 13.145C57.1464 13.2271 57.0068 13.2845 56.8344 13.3091L56.8179 14.9904L56.2514 14.9411L56.276 13.2271Z" fill="#003993"/>
<path d="M11.2622 32.2215C10.3426 31.9262 9.46397 31.6064 8.63464 31.2783C10.047 32.1477 11.8452 32.9186 13.7584 33.4681C14.637 33.7305 15.4992 33.9356 16.3285 34.0668C16.6488 34.116 16.9362 34.157 17.2153 34.1816L17.4206 34.198L17.5109 34.2062C18.0693 34.2636 18.6195 34.28 19.1368 34.2718C19.8511 34.2554 20.467 34.1652 20.9596 34.0176L21.1321 33.9602L21.1567 33.952L21.247 33.9274C21.4031 33.8699 21.5426 33.8125 21.6658 33.7387C19.5227 34.1406 15.5649 33.6075 11.2622 32.2215Z" fill="#FFE800"/>
<path d="M0.0210992 14.9908C0.119634 13.5473 0.628728 12.2843 1.58944 11.3494C3.65045 9.34003 7.27159 9.33183 10.9913 10.9639C11.6235 11.2427 12.2558 11.5708 12.8798 11.9399C12.9127 11.9563 12.9455 11.9809 12.9866 11.9973C12.9373 11.9809 12.888 11.9645 12.8388 11.9481C12.6499 11.9973 12.4611 12.0629 12.2804 12.1285C11.796 11.8578 11.3115 11.6118 10.827 11.3986C10.2687 11.1525 9.71852 10.9393 9.17658 10.7753C6.24519 9.86492 3.55191 10.1028 1.93431 11.6856C1.18709 12.4155 0.735473 13.3669 0.554827 14.4495C0.513771 14.6873 0.489137 14.9334 0.480926 15.1794C0.390603 16.9509 0.957176 19.0176 2.09032 21.0844C2.35308 21.5683 2.64868 22.0439 2.97713 22.5196C3.72435 23.6268 4.63579 24.7094 5.69504 25.7345C7.66572 27.6373 9.94844 29.0889 12.1737 29.9254C10.8845 29.1463 9.6282 28.1785 8.46221 27.055C7.45223 26.079 6.57364 25.0456 5.83463 23.9877C5.68683 23.7744 5.54724 23.5612 5.40764 23.3479C3.38769 20.1822 2.63226 16.8935 3.41232 14.4495C3.46159 14.3019 3.51086 14.1542 3.56834 14.0148C3.72435 14.0476 3.88036 14.0886 4.03637 14.1378C5.23521 14.4987 6.50795 15.245 7.62467 16.3194C7.81353 16.4998 7.99417 16.6884 8.16661 16.8771C8.12555 17.0821 8.09271 17.2871 8.06807 17.5004C7.82995 17.2051 7.56719 16.9181 7.2798 16.6474C6.21234 15.6141 4.99708 14.9088 3.87215 14.5643C3.07566 16.9919 3.92963 20.3627 6.12202 23.5612C6.2534 23.7498 6.38478 23.9384 6.52437 24.1189C7.18126 25.0046 7.93669 25.874 8.79887 26.7023C10.5232 28.359 12.4775 29.6794 14.4318 30.5487C14.9983 30.7948 15.5567 31.0162 16.115 31.1884C15.5074 31.1884 14.8834 31.1228 14.2511 31.008C11.2869 30.4585 8.07628 28.6952 5.35017 26.0626C3.82288 24.5864 2.59942 22.9871 1.71261 21.3714C1.31026 20.6497 0.981809 19.928 0.719051 19.2145C0.341336 18.1811 0.111422 17.1723 0.0293103 16.221C-0.00353448 15.8027 -0.00353435 15.3926 0.0210992 14.9908Z" fill="#FFE800"/>
<path d="M1.20352 14.9329C1.25279 13.7519 1.63872 12.7267 2.40236 11.9722C4.20061 10.1761 7.62468 10.3729 11.098 12.1526C11.1637 12.1854 11.2376 12.2182 11.3033 12.2593C11.1473 12.3413 8.63466 13.3254 8.1502 15.9089C5.90854 13.8831 3.22348 13.145 2.09033 14.2686C1.86042 14.4982 1.72904 14.7771 1.64693 15.1051C1.63051 15.794 1.74546 16.5486 1.96716 17.3277C2.1396 17.9346 2.37772 18.5661 2.68154 19.1976C1.96716 18.2626 1.49913 17.3031 1.30206 16.4337C1.21995 16.0975 1.19531 15.7694 1.20352 15.466C1.20352 15.4004 1.19531 15.3348 1.19531 15.2773C1.19531 15.1625 1.20352 15.0477 1.20352 14.9329Z" fill="#FFE800"/>
<path d="M2.09854 15.7941L2.8047 14.4736L2.55837 15.9417C2.0657 18.8368 3.5355 22.5602 6.48332 25.9145C6.48332 25.9145 1.67156 20.0506 1.67156 17.6886C1.66335 16.9832 1.81115 16.3435 2.09854 15.7941Z" fill="#E72D18"/>
<path d="M7.53434 14.8754C7.68214 14.3095 7.86279 13.7682 8.05985 13.2598C7.41938 14.1127 6.92671 15.2117 6.68037 16.4009C6.55721 16.9422 6.49152 17.4835 6.49152 17.9919C6.49152 18.1888 6.49973 18.3692 6.51615 18.5496L6.53257 18.6809L6.54078 18.7383C6.57363 19.0909 6.63932 19.4354 6.73785 19.7634C6.86923 20.2145 7.04988 20.6082 7.27979 20.928L7.3619 21.0429L7.37833 21.0593L7.41938 21.1167C7.50149 21.2151 7.58361 21.3053 7.67393 21.3873C6.92671 20.0095 6.82818 17.5327 7.53434 14.8754Z" fill="#E72D18"/>
<path d="M19.6048 13.0303L25.0817 13.5798L27.1837 21.1496H27.3069C27.3726 20.5427 27.4383 19.903 27.5779 19.3207L28.8588 13.957L33.3011 14.3999L35.3292 27.1776L31.4289 27.3991L30.6735 20.2311H30.5914C30.5257 20.6739 30.4518 21.1332 30.3368 21.5515L28.7274 27.5549L26.0095 27.7107L24.0306 21.8385C23.8582 21.2316 23.7104 20.6575 23.6447 20.0424L23.4805 20.0342C23.4641 20.6083 23.4476 21.1988 23.4148 21.7729L23.0617 27.8747L17.8312 28.17L19.6048 13.0303Z" fill="#85919B"/>
<path d="M35.6823 14.6455L42.3006 15.318L42.3088 18.5001L39.4513 18.3361L39.4595 19.4925L42.0707 19.5991V22.5926L39.4759 22.5844L39.4841 23.749L42.3991 23.708V26.7835L35.8548 27.1526L35.6823 14.6455Z" fill="#85919B"/>
<path d="M51.3246 20.4113C51.2754 22.0516 51.2507 23.413 50.4132 24.7088C49.6414 25.898 48.4507 26.6033 47.2847 26.6689C46.1023 26.7428 44.9938 26.2999 44.1645 25.3813C43.3187 24.4464 42.785 23.0193 42.785 21.1986C42.785 17.4506 44.8706 15.3839 47.4161 15.6463C48.7463 15.7857 50.4789 16.8601 50.9962 18.6644L48.5246 19.8372C48.3193 19.2959 47.9334 18.9925 47.49 18.9679C46.4718 18.9105 45.8806 20.1079 45.8724 21.4201C45.8642 22.6175 46.4061 23.7247 47.3258 23.7165C47.761 23.7083 48.3111 23.4212 48.4507 22.7897H47.2026L47.2273 20.2719L51.3246 20.4113Z" fill="#85919B"/>
<path d="M54.1986 22.6908L54.683 19.7876H54.7652C54.798 20.1976 54.8226 20.6159 54.8801 21.0178L55.0936 22.6908H54.1986ZM53.7388 24.9544L55.4138 24.8888L55.5781 26.0288L57.7622 25.9058L56.005 16.6874L53.5088 16.4414L50.9962 26.2912L53.5253 26.1518L53.7388 24.9544Z" fill="#85919B"/>
<path d="M29.2365 28.4402L31.9052 28.3008L32.0858 34.5584L29.4665 34.8947L29.2365 28.4402Z" fill="#85919B"/>
<path d="M33.0876 28.2351L35.5181 28.0957L35.6002 32.1882L37.5134 31.9913L37.5381 33.8449L33.2436 34.4025L33.0876 28.2351Z" fill="#85919B"/>
<path d="M38.0718 27.9556L40.2231 27.8408L40.2477 31.6955L41.9475 31.515V33.2701L38.1375 33.7704L38.0718 27.9556Z" fill="#85919B"/>
<path d="M42.4976 27.7179L44.4108 27.6113L44.3944 32.9586L42.4976 33.2047V27.7179Z" fill="#85919B"/>
<path d="M47.7446 29.0391C48.2783 28.9981 48.5985 29.4245 48.5903 29.9576C48.5821 30.5317 48.229 30.9582 47.7199 31.0156C47.2109 31.073 46.8496 30.704 46.8496 30.1217C46.866 29.564 47.2109 29.0801 47.7446 29.0391ZM47.7692 27.3496C46.324 27.4316 45.0842 28.588 45.0677 30.2611C45.0595 31.9506 46.2666 32.8035 47.6953 32.6149C49.0748 32.4344 50.1669 31.3601 50.1997 29.7854C50.2326 28.2271 49.1569 27.2676 47.7692 27.3496Z" fill="#85919B"/>
<path d="M50.7827 27.2591L52.2361 27.1771L53.4678 29.7113H53.5088C53.4596 29.3259 53.4103 28.924 53.4267 28.5303L53.4678 27.1197L54.798 27.0459L54.6502 31.6223L53.3364 31.7945L52.1376 29.4653H52.0965C52.1376 29.7934 52.1704 30.0968 52.1622 30.4085L52.1211 31.9421L50.6924 32.1307L50.7827 27.2591Z" fill="#9EA3A6"/>
<path d="M55.4959 29.9167L55.5616 29.9741C55.7833 30.1791 56.0543 30.3267 56.3581 30.2939C56.4813 30.2775 56.6865 30.1955 56.6948 29.9987C56.703 29.8018 56.5387 29.8018 56.4238 29.7854L56.1692 29.7526C55.6684 29.687 55.2414 29.359 55.266 28.6455C55.2989 27.5629 56.1036 26.9068 56.8754 26.8658C57.2695 26.8412 57.6226 26.9478 57.9429 27.1938L57.5652 28.342C57.3599 28.1698 57.1217 28.0468 56.8508 28.0632C56.744 28.0714 56.5798 28.137 56.5716 28.3174C56.5634 28.4814 56.7194 28.4978 56.8179 28.5142L57.0971 28.5716C57.6144 28.6783 57.9757 29.0063 57.9511 29.7362C57.91 30.7614 57.1546 31.3683 56.4074 31.4667C55.964 31.5241 55.4467 31.4421 55.0443 31.2371L55.4959 29.9167Z" fill="#85919B"/>
<path d="M17.9626 29.0634L21.4523 28.8747L22.8729 32.4751L22.955 32.4669C22.996 32.1553 23.0371 31.8354 23.1274 31.532L23.9567 28.7353L27.0031 28.5713L28.5386 35.0258L25.7878 35.3866L25.2213 31.7698H25.1638C25.1145 31.9995 25.0735 32.2373 24.9996 32.4587L23.9403 35.6245L22.1174 35.8623L20.7954 33.041C20.6805 32.7458 20.5819 32.4751 20.5409 32.1799L20.4341 32.1881C20.4259 32.4751 20.4177 32.7704 20.4013 33.0574L20.196 36.1165L16.8869 36.543L17.9626 29.0634Z" fill="#85919B"/>
<path d="M20.3684 12.3906L25.8453 12.9401L27.9474 20.51H28.0705C28.1362 19.9031 28.2019 19.2634 28.3415 18.6811L29.6225 13.3174L34.0647 13.7685L36.0929 26.5462L32.1926 26.7676L31.4371 19.5996H31.355C31.2893 20.0425 31.2154 20.5018 31.1005 20.92L29.4911 26.9234L26.7732 27.0793L24.7943 21.2071C24.6218 20.6002 24.474 20.0261 24.4083 19.411H24.2359C24.2195 19.9851 24.2113 20.5756 24.1702 21.1497L23.8171 27.2515L18.5866 27.5467L20.3684 12.3906Z" fill="#FCF8FA"/>
<path d="M36.4378 14.0059L43.0642 14.6702V17.8605L40.2067 17.6965L40.2149 18.8447L42.8261 18.9595V21.9448H40.2313L40.2396 23.1094L43.1627 23.0602V26.1357L36.6102 26.5129L36.4378 14.0059Z" fill="#FCF8FA"/>
<path d="M52.0801 19.7717C52.0308 21.4119 52.0062 22.7734 51.1686 24.0692C50.3968 25.2584 49.2062 25.9637 48.0402 26.0293C46.8496 26.1031 45.741 25.6602 44.9199 24.7417C44.0742 23.8067 43.5404 22.3797 43.5404 20.559C43.5404 16.811 45.6261 14.7442 48.1716 15.0067C49.5018 15.1461 51.2343 16.2205 51.7516 18.0248L49.2801 19.1894C49.083 18.6481 48.6889 18.3446 48.2372 18.32C47.2191 18.2626 46.6361 19.46 46.6278 20.7722C46.6196 21.9696 47.1616 23.0768 48.0812 23.0686C48.5164 23.0604 49.0666 22.7734 49.2062 22.1419H47.9581L47.9827 19.624L52.0801 19.7717Z" fill="#FCF8FA"/>
<path d="M54.954 22.044L55.4384 19.1407H55.5206C55.5534 19.5508 55.578 19.969 55.6355 20.3709L55.849 22.044H54.954ZM54.4942 24.3157L56.1692 24.2501L56.3335 25.3901L58.5176 25.2671L56.7522 16.0488L54.256 15.8027L51.7434 25.6526L54.2725 25.5049L54.4942 24.3157Z" fill="#FCF8FA"/>
<path d="M20.623 12.1357L26.0999 12.6852L28.2019 20.2551H28.3251C28.3908 19.6482 28.4565 19.0085 28.5961 18.4262L29.877 13.0625L34.3275 13.5136L36.3474 26.2913L32.4471 26.5127L31.6917 19.3447H31.6096C31.5439 19.7876 31.47 20.2469 31.355 20.6652L29.7456 26.6685L27.0277 26.8244L25.0488 20.9522C24.8764 20.3453 24.7286 19.7712 24.6629 19.1561H24.4987C24.4822 19.7302 24.4658 20.3207 24.433 20.8948L24.0799 26.9966L18.8494 27.2918L20.623 12.1357Z" fill="#E72D18"/>
<path d="M36.7005 13.752L43.3187 14.4245L43.3269 17.6066L40.4694 17.4508L40.4777 18.599L43.0888 18.7056V21.6991L40.4941 21.6909L40.5023 22.8555L43.4173 22.8144L43.4255 25.89L36.8729 26.259L36.7005 13.752Z" fill="#E72D18"/>
<path d="M52.3428 19.5168C52.2936 21.157 52.2689 22.5185 51.4314 23.8143C50.6595 25.0035 49.4689 25.7088 48.3029 25.7744C47.1123 25.8482 46.012 25.4054 45.1827 24.4868C44.3369 23.5518 43.8032 22.1248 43.8032 20.3041C43.8032 16.5561 45.8888 14.4893 48.4343 14.7518C49.7645 14.8912 51.4971 15.9656 52.0144 17.7699L49.5428 18.9345C49.3375 18.3932 48.9516 18.0897 48.5 18.0651C47.4818 18.0077 46.8988 19.2051 46.8906 20.5173C46.8824 21.7147 47.4243 22.8219 48.344 22.8137C48.7792 22.8055 49.3293 22.5185 49.4689 21.887H48.2208L48.2455 19.3692L52.3428 19.5168Z" fill="#E72D18"/>
<path d="M55.2168 21.7973L55.7012 18.894H55.7833C55.8162 19.3041 55.8408 19.7223 55.8983 20.1242L56.1118 21.7973H55.2168ZM54.7569 24.0609L56.432 23.9952L56.5963 25.1352L58.7804 25.0122L57.0232 15.7939L54.527 15.5479L52.0144 25.3977L54.5435 25.2501L54.7569 24.0609Z" fill="#E72D18"/>
<path d="M29.7374 27.9728L32.4061 27.8252L32.5785 34.0828L29.9673 34.4273L29.7374 27.9728Z" fill="#FCF8FA"/>
<path d="M33.5885 27.7601L36.019 27.6289L36.0929 31.7214L38.0143 31.5163L38.0389 33.3781L33.7363 33.9357L33.5885 27.7601Z" fill="#FCF8FA"/>
<path d="M38.5645 27.4892L40.724 27.3662L40.7486 31.229L42.4484 31.0486V32.8037L38.6384 33.2958L38.5645 27.4892Z" fill="#FCF8FA"/>
<path d="M42.9985 27.2429L44.9117 27.1445L44.8871 32.4836L42.9985 32.7297V27.2429Z" fill="#FCF8FA"/>
<path d="M48.2455 28.5636C48.7792 28.5226 49.0994 28.9408 49.083 29.4821C49.0748 30.0562 48.7217 30.4827 48.2126 30.5401C47.7035 30.5975 47.3422 30.2284 47.3504 29.6462C47.3669 29.0967 47.7035 28.6128 48.2455 28.5636ZM48.2701 26.8741C46.8249 26.9561 45.585 28.1125 45.5768 29.7856C45.5686 31.4751 46.7757 32.328 48.2044 32.1312C49.5839 31.9507 50.676 30.8764 50.7088 29.3017C50.7335 27.7598 49.6578 26.8003 48.2701 26.8741Z" fill="#FCF8FA"/>
<path d="M51.2836 26.7923L52.737 26.7103L53.9687 29.2445H54.0097C53.9604 28.8591 53.9112 28.4654 53.9276 28.0635L53.9687 26.6529L55.2989 26.5791L55.1593 31.1555L53.8455 31.3277L52.622 28.9985H52.581C52.622 29.3266 52.6549 29.63 52.6467 29.9417L52.6056 31.4753L51.1768 31.6639L51.2836 26.7923Z" fill="#FCF8FA"/>
<path d="M55.9968 29.4403L56.0625 29.4978C56.2924 29.7028 56.5634 29.8504 56.859 29.8176C56.9822 29.8012 57.1875 29.7192 57.1957 29.5224C57.2039 29.3255 57.0397 29.3255 56.9247 29.3091L56.6702 29.2763C56.1693 29.2189 55.7505 28.8827 55.7669 28.1691C55.7998 27.0866 56.6045 26.4304 57.3763 26.3894C57.7705 26.373 58.1235 26.4715 58.4438 26.7175L58.0661 27.8657C57.8608 27.6935 57.6227 27.5704 57.3517 27.5868C57.2449 27.595 57.0725 27.6607 57.0725 27.8411C57.0643 28.0051 57.2203 28.0215 57.3188 28.0379L57.598 28.0953C58.1153 28.2019 58.4766 28.53 58.452 29.2599C58.4109 30.2851 57.6637 30.892 56.9165 30.9904C56.4731 31.0478 55.9558 30.9658 55.5534 30.7608L55.9968 29.4403Z" fill="#FCF8FA"/>
<path d="M18.4552 28.5878L21.945 28.3992L23.3655 31.9995L23.4477 31.9913C23.4887 31.6797 23.5298 31.3598 23.6201 31.0564L24.4494 28.2597L27.504 28.0957L29.0395 34.5502L26.2887 34.911L25.7222 31.2942H25.6647C25.6154 31.5239 25.5744 31.7617 25.5005 31.9831L24.4412 35.1489L22.6183 35.3867L21.2963 32.5736C21.1814 32.2784 21.0828 32.0077 21.0418 31.7125L20.935 31.7207C20.9268 32.0077 20.9186 32.303 20.9022 32.59L20.6969 35.6491L17.3878 36.0756L18.4552 28.5878Z" fill="#FCF8FA"/>
<path d="M29.9591 27.7433L32.6196 27.5957L32.8002 33.8533L30.1808 34.1978L29.9591 27.7433Z" fill="#003993"/>
<path d="M33.8019 27.5297L36.2407 27.3984L36.3146 31.4909L38.2278 31.2859L38.2524 33.1476L33.958 33.7053L33.8019 27.5297Z" fill="#003993"/>
<path d="M38.7862 27.2597L40.9375 27.1367L40.9621 30.9996L42.6618 30.8191L42.6701 32.5742L38.8519 33.0663L38.7862 27.2597Z" fill="#003993"/>
<path d="M43.212 27.0138L45.1334 26.9072L45.1088 32.2545L43.2202 32.5005L43.212 27.0138Z" fill="#003993"/>
<path d="M51.4971 26.5628L52.9505 26.4808L54.1822 29.015H54.2232C54.1739 28.6296 54.1247 28.2277 54.1411 27.8341L54.1822 26.4234L55.5124 26.3496L55.3646 30.926L54.0508 31.0982L52.8519 28.769H52.8109C52.8519 29.0971 52.8848 29.4005 52.8766 29.7122L52.8355 31.2458L51.4068 31.4344L51.4971 26.5628Z" fill="#003993"/>
<path d="M56.2103 29.2116L56.276 29.269C56.5059 29.4658 56.7769 29.6217 57.0725 29.5888C57.1957 29.5724 57.4009 29.4904 57.4091 29.2936C57.4174 29.0968 57.2531 29.0968 57.1382 29.0804L56.8836 29.0476C56.3827 28.9819 55.9558 28.6539 55.9804 27.9404C56.0132 26.8578 56.8179 26.2017 57.5898 26.1607C57.9839 26.1361 58.337 26.2427 58.6572 26.4887L58.2795 27.6369C58.0743 27.4647 57.8361 27.3417 57.5652 27.3581C57.4584 27.3663 57.286 27.4319 57.286 27.6123C57.2778 27.7763 57.4338 27.7928 57.5323 27.8092L57.8115 27.8666C58.3288 27.9732 58.6901 28.3012 58.6655 29.0312C58.6244 30.0563 57.8772 30.6632 57.13 30.7616C56.6866 30.8191 56.1693 30.737 55.7669 30.532L56.2103 29.2116Z" fill="#003993"/>
<path d="M18.677 28.3589L22.1667 28.1702L23.5872 31.7788L23.6694 31.7706C23.7104 31.459 23.7515 31.1391 23.8418 30.8357L24.6711 28.039L27.7257 27.875L29.2612 34.3295L26.5104 34.6821L25.9439 31.0653L25.8864 31.0735C25.8453 31.3032 25.7961 31.541 25.7222 31.7624L24.6629 34.9282L22.84 35.166L21.518 32.3529C21.4031 32.0577 21.3045 31.787 21.2635 31.4918L21.1567 31.5C21.1485 31.787 21.1403 32.0823 21.1239 32.3693L20.9186 35.4202L17.6095 35.8549L18.677 28.3589Z" fill="#003993"/>
<path d="M48.4836 26.6437C47.0384 26.7257 45.7985 27.8821 45.7821 29.5551C45.7739 31.2446 46.981 32.0976 48.4097 31.9089C49.7892 31.7285 50.8813 30.6541 50.9141 29.0795C50.9552 27.5212 49.8713 26.5698 48.4836 26.6437Z" fill="#003993"/>
<path d="M48.2783 28.7362L48.6971 27.3584L49.1569 28.6624L50.3393 28.5722L49.4279 29.4251L49.8384 30.6143L48.7874 30.0156L47.5475 31.1556L48.0156 29.6056L46.6525 28.851L48.2783 28.7362Z" fill="#FCF8FA"/>
<path d="M21.8793 18.7795C21.8793 22.3716 18.874 25.2913 15.1707 25.2913C11.4675 25.2913 8.46219 22.3799 8.46219 18.7795C8.46219 15.1873 11.4675 12.2676 15.1707 12.2676C18.874 12.2676 21.8793 15.1873 21.8793 18.7795Z" fill="#003993"/>
<path d="M17.6588 20.5259C17.6588 22.6337 15.8769 24.3396 13.6845 24.3396C11.4922 24.3396 9.71033 22.6337 9.71033 20.5259C9.71033 18.4182 11.4922 16.7041 13.6845 16.7041C15.8769 16.7123 17.6588 18.4182 17.6588 20.5259Z" fill="#003993"/>
<path d="M13.4382 22.2809C13.4382 22.9042 12.8798 23.4045 12.1983 23.4045C11.5168 23.4045 10.9584 22.9042 10.9584 22.2809C10.9584 21.6576 11.5168 21.1573 12.1983 21.1573C12.888 21.1491 13.4382 21.6576 13.4382 22.2809Z" fill="#003993"/>
<path d="M9.06982 18.123C9.59568 17.9672 9.8586 17.7949 9.8586 17.7949C9.89147 18.3198 9.72714 18.5658 9.72714 18.5658C9.60389 18.4592 9.06982 18.123 9.06982 18.123Z" fill="#FFE800"/>
<path d="M16.9362 21.3782C17.5195 21.165 17.6099 21.042 17.6099 21.042C17.6181 21.2716 17.7414 21.6653 17.7414 21.6653C17.2402 21.4767 16.9362 21.3782 16.9362 21.3782Z" fill="#FFE800"/>
<path d="M19.3754 23.1418C19.2275 22.9203 19.1124 22.7727 19.0796 22.7563C18.8331 22.6743 18.6194 22.6825 18.6194 22.6825C18.8906 22.5185 19.1535 22.4036 19.1535 22.4036C19.1042 22.297 19.0385 22.0674 19.0385 22.0674L19.4 22.3052C19.6711 22.1986 19.8848 22.1412 19.8848 22.1412L19.7122 22.4939L19.9094 22.7891C19.7862 22.7973 19.5233 22.7809 19.5233 22.7809C19.4493 22.9531 19.3754 23.1418 19.3754 23.1418Z" fill="#FFE800"/>
<path d="M19.104 15.1787C19.3176 15.2115 19.4408 15.2361 19.4408 15.2361C19.4573 15.3345 19.4491 15.4658 19.4491 15.4658H19.4573C19.6134 15.4083 19.6709 15.3591 19.6709 15.3591C19.8599 15.5642 19.9338 15.7036 19.9338 15.7036C19.9749 15.8184 19.9996 15.8676 19.9996 15.8676L20.1228 16.1547C19.9256 16.2285 19.7449 16.3351 19.7449 16.3351C19.7449 15.8512 19.6216 15.6462 19.6216 15.6462L19.4901 15.7118L19.0382 15.9086C19.1368 15.4822 19.104 15.1787 19.104 15.1787Z" fill="#FFE800"/>
<path d="M19.4324 15.1791C19.4488 15.2365 19.4488 15.2775 19.4488 15.2775C19.2025 15.2283 19.1121 15.2283 19.1121 15.2283L19.0711 14.974L18.989 14.8346C18.874 14.9494 18.7016 15.0068 18.7016 15.0068C18.3731 14.9166 18.2828 14.8674 18.2828 14.8674C17.9708 14.7198 17.7491 14.5312 17.7491 14.5312C17.864 14.4082 18.0118 14.1621 18.0118 14.1621C18.6441 14.769 18.7837 14.769 18.7837 14.769L18.989 14.6542L19.1696 14.441C19.3256 14.8018 19.3667 14.9494 19.3667 14.9494L19.416 15.0561" fill="#FFE800"/>
<path d="M12.4284 14.3507L12.3381 14.162L12.2559 13.9488C12.3874 14.039 12.7407 14.1784 12.7407 14.1784L12.8146 14.0964C13.0036 13.9652 13.1022 13.834 13.1022 13.834C13.1433 14.1374 13.094 14.3917 13.094 14.3917L13.1351 14.4573C13.2337 14.5885 13.324 14.7935 13.324 14.7935L13.0036 14.7115L12.9625 14.6951L12.9296 14.7115L12.9214 14.7771L12.8721 14.9576L12.8639 15.0068L12.8228 15.1298L12.8146 15.138C12.7242 14.9822 12.6667 14.9248 12.6667 14.9248C12.5846 14.8181 12.5599 14.7443 12.5599 14.7443L12.5353 14.6869C12.2148 14.6705 12.0834 14.6951 12.0834 14.6951L12.0751 14.6869L12.1491 14.6049L12.2148 14.5229C12.3874 14.3671 12.4284 14.3507 12.4284 14.3507Z" fill="#FFE800"/>
<path d="M12.0341 22.9863L12.3628 23.1914L12.6093 23.257L12.5517 23.298L12.5435 23.3308C12.256 23.5112 12.0259 23.8147 12.0259 23.8147H12.0095V23.6424L12.0259 23.339C12.0505 23.1176 12.0341 22.9863 12.0341 22.9863Z" fill="#FFE800"/>
<path d="M19.6951 17.8935L19.6787 17.8771L19.7691 17.8361L20.147 17.5654L20.2046 17.5244L20.221 17.5326L20.2539 17.6802C20.2867 17.9755 20.3442 18.1231 20.3442 18.1231L20.2539 18.0821C19.8595 17.8935 19.8677 17.9181 19.8184 17.9099C19.728 17.8853 19.6951 17.8935 19.6951 17.8935Z" fill="#FFE800"/>
<path d="M9.98126 19.5578C10.1373 19.4593 10.5232 19.3281 10.5232 19.3281C10.5725 19.5332 11.0323 19.9924 11.0323 19.9924L11.0569 20.0006L11.4346 19.7874L11.6646 19.6234H11.6728L11.7713 19.812L11.8206 19.9022L11.9602 20.1319C12.149 20.3943 12.1901 20.5747 12.1901 20.5747L11.6728 20.5665C11.5907 20.2713 11.5168 20.1565 11.5168 20.1565L11.4921 20.1319C11.4757 20.0416 11.4429 20.0334 11.4429 20.0334H11.4264C11.1719 20.1319 11.1637 20.1811 11.1637 20.1811C10.9256 20.2385 10.7777 20.3533 10.7777 20.3533C10.4739 19.7874 9.98126 19.5578 9.98126 19.5578Z" fill="#FFE800"/>
<path d="M11.7385 22.1577L11.6564 22.0675L11.3115 21.7722L10.8188 21.3129L10.7367 21.2473C11.0241 21.0259 11.3526 20.8537 11.3526 20.8537L11.4429 20.9029C11.6153 20.9439 11.7467 21.0669 11.7467 21.0669L11.7795 21.0751L11.7878 20.9603C11.7795 20.7798 11.6728 20.583 11.6728 20.583L12.1819 20.5912C12.2065 20.6322 12.223 20.7388 12.223 20.7388C12.2804 21.0587 12.1408 21.2309 12.1408 21.2309C12.1244 21.2801 12.1162 21.2801 12.1162 21.2801L12.0998 21.3211L12.1491 21.3621C12.4036 21.559 12.7156 21.9854 12.7156 21.9854C12.5103 22.0593 12.2804 22.2561 12.2804 22.2561L12.264 22.2397L12.1655 21.8788C12.0669 21.7476 12.0095 21.6164 12.0095 21.6164H12.0012L11.9273 21.8542L11.7385 22.1577Z" fill="#FFE800"/>
<path d="M11.1637 21.3703L11.213 21.2718L11.2376 21.1406H11.2541C11.402 21.1898 11.5663 21.198 11.5663 21.198C11.632 21.2636 11.7306 21.3211 11.7306 21.3211V21.3457C11.6649 21.4687 11.6402 21.6573 11.6402 21.6573H11.6238L11.5663 21.6163C11.4266 21.4851 11.2869 21.4031 11.2869 21.4031L11.1801 21.3867L11.1637 21.3703Z" fill="#003993"/>
<path d="M14.5221 25.5615C14.2675 25.5287 13.7995 25.4303 13.7995 25.4303L14.1772 24.9956L14.3661 24.4625L14.2757 24.2411L13.9801 23.9458C13.9637 23.6998 13.8734 23.6014 13.8734 23.6014C13.6763 23.0191 13.6845 23.1339 13.6845 23.1339C13.4628 22.8714 13.2247 22.8058 13.2247 22.8058L13.3068 22.6008L13.9719 22.5762C14.3168 22.9043 14.3661 23.1503 14.3661 23.1503C14.752 23.3307 14.7109 23.3963 14.7109 23.3963L15.179 23.5522L15.5731 24.1345L15.3186 23.5194L14.4235 23.0765C14.3907 22.855 14.4153 22.8222 14.4153 22.8222C14.3496 22.6992 14.3578 22.5844 14.3578 22.5844C14.2511 21.7479 14.325 21.8873 14.325 21.8873L14.4071 21.4116C14.6042 20.9031 14.6534 20.9769 14.6534 20.9769C14.8177 21.0015 14.8423 21.0179 14.8423 21.0179C15.0147 21.6658 14.793 21.8135 14.793 21.8135L14.8916 21.9693L14.908 22.2974L15.0065 22.5188L14.9162 22.65C15.0804 22.5598 15.1133 22.6172 15.1133 22.6172L15.1543 21.8791L15.22 21.7069L15.2775 21.4772C15.4417 21.2886 15.6716 20.8867 15.6716 20.8867L15.918 20.9277V21.4034L15.8112 21.7807L15.8359 21.9037L15.7373 22.2809L15.7702 22.5024L15.6142 22.65L15.7866 22.6828C16.0001 22.4204 16.1068 22.2153 16.1068 22.2153L16.2711 22.1169L16.5256 22.2645L16.5667 22.4122C16.4763 22.6664 16.501 22.7976 16.501 22.7976C16.2711 23.0027 16.2218 23.1749 16.2218 23.1749L16.0001 23.1339L15.9508 23.0437C15.9426 22.7894 16.0329 22.5434 16.0329 22.5434H16.0001L15.9672 22.6582L15.9098 22.7402L15.8359 23.1831C16.0494 23.2651 16.1397 23.3553 16.1397 23.3553L16.4189 23.1585L16.5174 22.9043C16.6323 23.0027 16.7062 23.0109 16.7062 23.0109L16.7555 23.2733L16.7966 23.6014C16.5995 23.7654 16.5092 23.9294 16.5092 23.9294C16.4024 23.8556 16.3203 23.8556 16.3203 23.8556L16.3532 23.5604C16.4189 23.4455 16.4106 23.3799 16.4106 23.3799L16.3039 23.4455L16.23 23.4701L16.2464 23.7326L16.1972 24.0032L16.3367 24.0524L16.3285 24.3641C16.0576 24.6757 15.9508 24.9382 15.9508 24.9382L15.6881 25.1022L15.4335 25.053C15.4664 25.1678 15.6142 25.2744 15.6142 25.2744L15.5074 25.4139L14.6617 25.5697L14.5221 25.5615Z" fill="#FFE800"/>
<path d="M10.3097 15.8926L10.3426 16.5652L10.6874 17.2951C11.4018 18.0004 11.8699 18.2054 11.8699 18.2054L12.3133 18.4761C12.7074 18.9353 13.0687 19.2142 13.0687 19.2142L13.2001 19.5668L13.3889 19.5832C13.6681 19.4684 13.7502 19.4192 13.7502 19.4192L15.5074 19.2716L16.7884 19.5997L18.3978 19.9441L19.3667 19.8375C20.081 19.5997 20.3684 19.3782 20.3684 19.3782L20.5491 19.165L20.1467 18.9189L19.7444 18.7795C18.9643 18.5581 18.406 18.5335 18.406 18.5335C16.8294 18.8451 15.5731 18.9763 15.5731 18.9763C14.21 19.2388 13.586 19.2388 13.586 19.2388L13.3725 19.37L13.2247 19.124L12.9866 18.8779C13.2493 18.9435 13.4628 19.1158 13.4628 19.1158C14.6863 19.0584 14.8916 18.8861 14.8916 18.8861L15.3268 18.8943L16.1889 18.6893L16.5584 18.6811C17.1086 18.5089 17.4617 18.4925 17.4617 18.4925L17.4453 18.312L17.5766 17.7708L17.7244 16.4913C17.7409 15.6056 17.667 15.417 17.667 15.417C17.3714 14.9003 17.2235 14.8347 17.2235 14.8347L16.8458 14.6952L16.3942 14.9577L15.918 14.9413C15.8605 14.8265 15.7784 14.7609 15.7784 14.7609L15.7866 14.7444C15.9015 14.7855 15.9426 14.8347 15.9426 14.8347L16.1889 14.7362L15.803 14.3672C15.2529 14.5148 14.8177 14.5476 14.8177 14.5476C14.3661 15.0233 13.9801 15.3103 13.9801 15.3103L13.5696 16.0977L13.1097 16.7702L13.0276 17.0162L12.9702 17.0818L13.0358 17.3197L13.8159 17.7872C14.7273 18.0988 15.3925 18.4187 15.3925 18.4187L16.1068 18.5499L15.9015 18.6729L14.9162 18.4515L14.1444 18.0906L13.6024 17.8856L12.8552 17.3607L12.7402 17.131L13.0194 16.7538C12.8634 16.6964 12.6828 16.6636 12.6828 16.6636L12.1737 16.3519L11.6974 16.0813L11.1226 15.786C10.8927 15.7942 10.6464 15.7696 10.6464 15.7696L10.3097 15.8926Z" fill="#FFE800"/>
<path d="M16.8873 18.4509C16.6736 18.4099 16.4107 18.4263 16.4107 18.4263C16.5504 18.3443 16.7065 18.3032 16.7065 18.3032C16.5504 18.1638 16.3368 18.0654 16.3368 18.0654C16.6079 18.049 16.8133 17.9998 16.8133 17.9998C16.5833 17.8358 16.345 17.7538 16.345 17.7538C16.6243 17.721 16.879 17.6717 16.879 17.6717C16.5915 17.4749 16.46 17.4093 16.46 17.4093C16.7887 17.3929 16.9859 17.3437 16.9859 17.3437L16.6079 17.1223C16.953 17.0566 17.0927 16.991 17.0927 16.991C16.7887 16.8106 16.6079 16.7532 16.6079 16.7532L17.1502 16.6056C16.8297 16.3923 16.6161 16.3103 16.6161 16.3103C17.0023 16.2447 17.1748 16.1545 17.1748 16.1545C16.8544 15.8838 16.7147 15.9002 16.7147 15.9002C16.9366 15.8346 17.1338 15.8346 17.1338 15.8346C17.0023 15.6296 16.7887 15.5476 16.7887 15.5476C17.0023 15.523 17.1666 15.5476 17.1666 15.5476C16.9859 15.3508 16.8297 15.2441 16.8297 15.2441C17.1255 15.3016 17.2734 15.4082 17.2734 15.4082C17.3556 15.9413 17.3309 16.0479 17.3309 16.0479L17.3145 16.4907C17.2981 17.0074 17.1831 17.3847 17.1831 17.3847L17.0434 18.0572C16.9448 18.254 16.8873 18.4509 16.8873 18.4509Z" fill="#003993"/>
<path d="M17.1497 19.4022C17.8805 19.5089 18.406 19.7139 18.406 19.7139L19.3749 19.4925C19.7937 19.2546 19.9661 19.2218 19.9661 19.2218C19.613 19.107 19.342 18.9102 19.342 18.9102L19.4898 19.2382C19.1778 19.066 18.9315 19.0004 18.9315 19.0004C19.0957 19.1808 19.1532 19.3448 19.1532 19.3448C18.7016 19.2136 18.4799 19.066 18.4799 19.066C18.5866 19.2956 18.7262 19.4432 18.7262 19.4432C18.2417 19.2218 18.1596 19.0824 18.1596 19.0824C18.1925 19.2628 18.3239 19.5581 18.3239 19.5581L17.7409 19.2218L17.8558 19.4268C17.5438 19.394 17.1497 19.4022 17.1497 19.4022Z" fill="#003993"/>
<path d="M18.0365 13.9239C17.9051 14.3175 17.199 14.4488 16.4599 14.2191C15.7209 13.9813 15.2365 13.4728 15.3679 13.0791C15.4992 12.6855 16.2054 12.5543 16.9444 12.7839C17.6752 13.0217 18.1679 13.5302 18.0365 13.9239Z" fill="#003993"/>
<path d="M18.0283 13.9156C17.8969 14.3093 17.1989 14.4405 16.4681 14.2027C15.7373 13.973 15.2529 13.4645 15.3843 13.0709C15.5156 12.6772 16.2136 12.546 16.9444 12.7838C17.6752 13.0217 18.1596 13.5302 18.0283 13.9156Z" fill="#003A94"/>
<path d="M18.02 13.9156C17.8886 14.3011 17.1907 14.4323 16.4681 14.2026C15.7455 13.973 15.2611 13.4727 15.3924 13.0791C15.5238 12.6936 16.2136 12.5624 16.9444 12.792C17.6669 13.0217 18.1514 13.5301 18.02 13.9156Z" fill="#003B94"/>
<path d="M18.0118 13.9074C17.8804 14.2929 17.1907 14.4159 16.4763 14.1944C15.7537 13.9648 15.2775 13.4645 15.4089 13.0791C15.5402 12.6936 16.23 12.5624 16.9526 12.792C17.6587 13.0299 18.1432 13.5219 18.0118 13.9074Z" fill="#003C95"/>
<path d="M18.0036 13.9072C17.8722 14.2927 17.1907 14.4157 16.4763 14.1861C15.762 13.9564 15.2857 13.4644 15.4171 13.0789C15.5485 12.6934 16.23 12.5704 16.9444 12.8C17.6587 13.0297 18.135 13.5218 18.0036 13.9072Z" fill="#023D95"/>
<path d="M17.9954 13.9079C17.864 14.2852 17.1907 14.4164 16.4763 14.1868C15.7702 13.9571 15.2939 13.4732 15.4253 13.0878C15.5567 12.7105 16.23 12.5793 16.9444 12.8089C17.6505 13.0304 18.1268 13.5224 17.9954 13.9079Z" fill="#073E96"/>
<path d="M17.9872 13.899C17.8558 14.2763 17.1825 14.3993 16.4846 14.1778C15.7784 13.9564 15.3104 13.4643 15.4417 13.0871C15.5649 12.7098 16.2464 12.5868 16.9444 12.8082C17.6423 13.0378 18.1104 13.5217 17.9872 13.899Z" fill="#0C3F96"/>
<path d="M17.979 13.8996C17.8558 14.2768 17.1825 14.3999 16.4845 14.1784C15.7866 13.957 15.3186 13.4731 15.4499 13.0958C15.5731 12.7186 16.2464 12.5956 16.9444 12.817C17.6341 13.0384 18.1022 13.5223 17.979 13.8996Z" fill="#104097"/>
<path d="M17.9708 13.8907C17.8476 14.2598 17.1825 14.3828 16.4928 14.1614C15.7948 13.9399 15.335 13.4642 15.4664 13.087C15.5895 12.7179 16.2547 12.5949 16.9526 12.8163C17.6341 13.0378 18.094 13.5217 17.9708 13.8907Z" fill="#134197"/>
<path d="M17.9626 13.8913C17.8394 14.2604 17.1743 14.3834 16.4928 14.1619C15.803 13.9405 15.3432 13.4648 15.4664 13.0958C15.5895 12.7267 16.2464 12.6037 16.9362 12.8251C17.6259 13.0466 18.0857 13.5222 17.9626 13.8913Z" fill="#174298"/>
<path d="M17.9544 13.8831C17.8312 14.2522 17.1743 14.367 16.4928 14.1537C15.8112 13.9405 15.3514 13.4648 15.4746 13.0958C15.5978 12.7267 16.2546 12.6037 16.9362 12.8251C17.6177 13.0466 18.0775 13.5222 17.9544 13.8831Z" fill="#1A4399"/>
<path d="M17.9462 13.8831C17.823 14.2439 17.1743 14.367 16.501 14.1537C15.8277 13.9405 15.3678 13.473 15.491 13.104C15.6142 12.7431 16.2629 12.6201 16.9444 12.8333C17.6177 13.0465 18.0693 13.5222 17.9462 13.8831Z" fill="#1D4499"/>
<path d="M17.9379 13.8748C17.8148 14.2357 17.1743 14.3505 16.501 14.1373C15.8276 13.924 15.376 13.4566 15.4992 13.0957C15.6224 12.7348 16.2628 12.6118 16.9362 12.8333C17.6095 13.0547 18.0611 13.5222 17.9379 13.8748Z" fill="#1F449A"/>
<path d="M17.9297 13.8747C17.8066 14.2356 17.1661 14.3504 16.501 14.1371C15.8359 13.9239 15.3925 13.4646 15.5074 13.1038C15.6306 12.7429 16.2629 12.6281 16.9362 12.8413C17.6013 13.0546 18.0447 13.5138 17.9297 13.8747Z" fill="#22459A"/>
<path d="M17.9215 13.8666C17.7983 14.2193 17.1661 14.3341 16.5092 14.129C15.8441 13.9158 15.4089 13.4565 15.5238 13.1039C15.6388 12.7512 16.2793 12.6282 16.9362 12.8414C17.6013 13.0547 18.0365 13.5139 17.9215 13.8666Z" fill="#24469B"/>
<path d="M17.9133 13.8665C17.7983 14.2191 17.1661 14.3339 16.5092 14.1289C15.8523 13.9157 15.4171 13.4646 15.5321 13.1119C15.647 12.7593 16.2793 12.6445 16.9362 12.8495C17.5931 13.0627 18.0283 13.5138 17.9133 13.8665Z" fill="#27479B"/>
<path d="M17.9051 13.866C17.7901 14.2187 17.1661 14.3335 16.5092 14.1203C15.8605 13.9153 15.4253 13.4642 15.5403 13.1115C15.6552 12.7589 16.2793 12.644 16.9362 12.8573C17.5849 13.0623 18.0201 13.5134 17.9051 13.866Z" fill="#29499C"/>
<path d="M17.8969 13.8582C17.7819 14.2026 17.1579 14.3175 16.5174 14.1124C15.8687 13.9074 15.4417 13.4563 15.5567 13.1119C15.6716 12.7674 16.2957 12.6526 16.9362 12.8576C17.5848 13.0627 18.0118 13.5137 17.8969 13.8582Z" fill="#2B499D"/>
<path d="M17.8805 13.8578C17.7655 14.2023 17.1497 14.3171 16.5092 14.112C15.8687 13.907 15.4417 13.4641 15.5567 13.1197C15.6717 12.7752 16.2875 12.6604 16.928 12.8654C17.5766 13.0705 18.0036 13.5133 17.8805 13.8578Z" fill="#2D4A9D"/>
<path d="M17.8804 13.8499C17.7655 14.1943 17.1579 14.3009 16.5256 14.1041C15.8933 13.8991 15.4663 13.4644 15.5813 13.1199C15.6963 12.7755 16.3039 12.6689 16.9444 12.8657C17.5684 13.0707 17.9954 13.5136 17.8804 13.8499Z" fill="#2F4B9E"/>
<path d="M17.864 13.8505C17.7491 14.1868 17.1496 14.3016 16.5174 14.0965C15.8851 13.8997 15.4664 13.4568 15.5813 13.1206C15.6963 12.7843 16.2957 12.6695 16.9279 12.8745C17.5602 13.0714 17.9872 13.506 17.864 13.8505Z" fill="#314D9E"/>
<path d="M17.8558 13.8416C17.7409 14.1778 17.1497 14.2845 16.5256 14.0876C15.9016 13.8908 15.4828 13.4561 15.5977 13.1199C15.7127 12.7836 16.3039 12.677 16.9362 12.8738C17.5602 13.0789 17.9708 13.5053 17.8558 13.8416Z" fill="#334D9F"/>
<path d="M17.8476 13.8422C17.7327 14.1702 17.1415 14.285 16.5256 14.0882C15.9098 13.8914 15.491 13.4649 15.606 13.1287C15.7209 12.7924 16.3121 12.6858 16.928 12.8826C17.552 13.0794 17.9626 13.5059 17.8476 13.8422Z" fill="#354FA0"/>
<path d="M17.8476 13.8334C17.7326 14.1614 17.1496 14.268 16.5338 14.0794C15.918 13.8826 15.5074 13.4561 15.6224 13.1281C15.7291 12.8 16.3203 12.6934 16.9362 12.882C17.5438 13.0788 17.9543 13.5053 17.8476 13.8334Z" fill="#3750A0"/>
<path d="M17.8312 13.8339C17.7244 14.162 17.1414 14.2686 16.5338 14.0717C15.9262 13.8749 15.5156 13.4566 15.6306 13.1286C15.7373 12.8005 16.3203 12.6939 16.9362 12.8907C17.5438 13.0876 17.9461 13.5059 17.8312 13.8339Z" fill="#3951A1"/>
<path d="M17.8312 13.8251C17.7245 14.1449 17.1415 14.2516 16.542 14.0629C15.9344 13.8743 15.5321 13.456 15.647 13.128C15.7538 12.8081 16.3368 12.7015 16.9362 12.8901C17.5356 13.087 17.9379 13.5052 17.8312 13.8251Z" fill="#3B52A2"/>
<path d="M17.8148 13.8257C17.708 14.1455 17.1332 14.2521 16.5338 14.0635C15.9344 13.8749 15.5403 13.4566 15.647 13.1368C15.7538 12.8169 16.3285 12.7103 16.928 12.8989C17.5274 13.0875 17.9297 13.5058 17.8148 13.8257Z" fill="#3D53A2"/>
<path d="M17.8065 13.8253C17.6998 14.1451 17.1332 14.2518 16.542 14.0631C15.9508 13.8745 15.5567 13.4644 15.6634 13.1446C15.7702 12.8247 16.3367 12.7181 16.9279 12.9067C17.5191 13.0954 17.9215 13.5054 17.8065 13.8253Z" fill="#3F54A3"/>
<path d="M17.7983 13.8174C17.6916 14.129 17.125 14.2357 16.542 14.047C15.9508 13.8584 15.5649 13.4565 15.6716 13.1367C15.7784 12.825 16.3367 12.7184 16.9279 12.907C17.5191 13.0957 17.9051 13.5057 17.7983 13.8174Z" fill="#4155A4"/>
<path d="M17.7901 13.817C17.6834 14.1287 17.125 14.2271 16.542 14.0466C15.959 13.8662 15.5731 13.4561 15.6799 13.1445C15.7866 12.8328 16.345 12.7262 16.928 12.9149C17.5109 13.1035 17.8969 13.5054 17.7901 13.817Z" fill="#4356A4"/>
<path d="M17.7819 13.8091C17.6752 14.1207 17.125 14.2191 16.5502 14.0387C15.9755 13.8583 15.5895 13.4564 15.6963 13.1448C15.803 12.8331 16.3532 12.7347 16.928 12.9151C17.5027 13.1037 17.8887 13.4974 17.7819 13.8091Z" fill="#4457A5"/>
<path d="M17.7737 13.8088C17.667 14.1122 17.125 14.2189 16.5502 14.0384C15.9754 13.858 15.5977 13.4643 15.7045 13.1527C15.8112 12.8492 16.3532 12.7426 16.9279 12.9231C17.5027 13.1035 17.8804 13.4971 17.7737 13.8088Z" fill="#4659A5"/>
<path d="M17.7655 13.8008C17.667 14.1042 17.1168 14.2027 16.5502 14.0222C15.9837 13.8418 15.606 13.4481 15.7127 13.1447C15.8112 12.8412 16.3614 12.7428 16.928 12.9232C17.4945 13.1037 17.8722 13.4973 17.7655 13.8008Z" fill="#485AA6"/>
<path d="M17.7573 13.8014C17.6587 14.1048 17.1168 14.2032 16.5584 14.0228C16.0001 13.8424 15.6224 13.4569 15.7209 13.1535C15.8194 12.85 16.3614 12.7516 16.9197 12.932C17.4863 13.1125 17.864 13.4979 17.7573 13.8014Z" fill="#4A5BA7"/>
<path d="M17.7491 13.7926C17.6505 14.0878 17.1168 14.1862 16.5667 14.014C16.0083 13.8336 15.6388 13.4563 15.7373 13.1529C15.8359 12.8576 16.3696 12.7592 16.928 12.9314C17.4863 13.1119 17.8558 13.4973 17.7491 13.7926Z" fill="#4B5CA8"/>
<path d="M17.7408 13.7926C17.6423 14.0878 17.1168 14.1862 16.5666 14.0058C16.0165 13.8336 15.647 13.4481 15.7455 13.1529C15.8441 12.8576 16.3696 12.7592 16.9197 12.9314C17.4781 13.1201 17.8476 13.4973 17.7408 13.7926Z" fill="#4D5DA8"/>
<path d="M17.7326 13.7842C17.6341 14.0794 17.1086 14.1697 16.5667 13.9974C16.0247 13.8252 15.6552 13.4479 15.7537 13.1527C15.8523 12.8574 16.3778 12.7672 16.9197 12.9395C17.4699 13.1199 17.8312 13.4971 17.7326 13.7842Z" fill="#4F5EA9"/>
<path d="M17.7245 13.7849C17.6259 14.0719 17.1086 14.1703 16.5749 13.9981C16.033 13.8259 15.6717 13.4568 15.7702 13.1616C15.8687 12.8745 16.386 12.7761 16.928 12.9483C17.4699 13.1206 17.823 13.4978 17.7245 13.7849Z" fill="#5160AA"/>
<path d="M17.7162 13.7847C17.6177 14.0718 17.1086 14.162 16.5749 13.998C16.0411 13.8258 15.6799 13.4567 15.7784 13.1696C15.8769 12.8826 16.386 12.7924 16.9197 12.9564C17.4617 13.1286 17.8148 13.4977 17.7162 13.7847Z" fill="#5361AA"/>
<path d="M17.708 13.7765C17.6095 14.0636 17.1004 14.1538 16.5749 13.9898C16.0494 13.8176 15.6963 13.4567 15.7866 13.1696C15.8851 12.8826 16.386 12.7924 16.9197 12.9564C17.4535 13.1286 17.8065 13.4895 17.708 13.7765Z" fill="#5462AB"/>
<path d="M17.6998 13.7762C17.6013 14.0551 17.1004 14.1453 16.5831 13.9812C16.0576 13.8172 15.7127 13.4564 15.803 13.1693C15.8933 12.8905 16.4024 12.792 16.9197 12.9643C17.4453 13.1283 17.7983 13.4892 17.6998 13.7762Z" fill="#5663AC"/>
<path d="M17.6916 13.7683C17.5931 14.0471 17.1004 14.1373 16.5831 13.9733C16.0658 13.8093 15.7209 13.4484 15.8112 13.1696C15.9016 12.8907 16.4024 12.8005 16.9198 12.9645C17.4453 13.1286 17.7901 13.4894 17.6916 13.7683Z" fill="#5864AD"/>
<path d="M17.6834 13.7679C17.5931 14.0467 17.1004 14.1369 16.5831 13.9729C16.074 13.8089 15.7291 13.4562 15.8194 13.1774C15.9098 12.8985 16.4024 12.8083 16.9197 12.9723C17.437 13.1364 17.7737 13.489 17.6834 13.7679Z" fill="#5A66AD"/>
<path d="M17.6752 13.76C17.5849 14.0306 17.1004 14.1209 16.5913 13.9568C16.0822 13.7928 15.7456 13.4401 15.8359 13.1695C15.9262 12.8989 16.4107 12.8086 16.9198 12.9727C17.4288 13.1367 17.7655 13.4893 17.6752 13.76Z" fill="#5B67AE"/>
<path d="M17.667 13.7596C17.5767 14.0302 17.0922 14.1205 16.5913 13.9564C16.0904 13.8006 15.7538 13.448 15.8441 13.1773C15.9344 12.9067 16.4189 12.8164 16.9198 12.9805C17.4206 13.1445 17.7573 13.489 17.667 13.7596Z" fill="#5D68AF"/>
<path d="M17.6587 13.7518C17.5684 14.0224 17.0922 14.1044 16.5995 13.9486C16.0986 13.7928 15.7702 13.4483 15.8605 13.1777C15.9508 12.9152 16.4271 12.825 16.9279 12.9808C17.4206 13.1449 17.7491 13.4893 17.6587 13.7518Z" fill="#5F6AB0"/>
<path d="M17.6505 13.7514C17.5602 14.0138 17.0922 14.104 16.5995 13.9482C16.1068 13.7924 15.7784 13.4479 15.8687 13.1855C15.959 12.923 16.4271 12.8328 16.9197 12.9887C17.4124 13.1445 17.7409 13.4889 17.6505 13.7514Z" fill="#606BB0"/>
<path d="M17.6423 13.7438C17.552 14.0063 17.084 14.0883 16.5995 13.9325C16.1151 13.7766 15.7866 13.4404 15.8769 13.1779C15.9673 12.9155 16.4353 12.8335 16.9197 12.9811C17.4042 13.1533 17.7327 13.4896 17.6423 13.7438Z" fill="#626CB1"/>
<path d="M17.6341 13.7431C17.5438 13.9973 17.084 14.0876 16.6077 13.9317C16.1233 13.7759 15.803 13.4478 15.8934 13.1854C15.9755 12.9312 16.4435 12.8409 16.9198 12.9968C17.4042 13.1526 17.7245 13.4807 17.6341 13.7431Z" fill="#636DB2"/>
<path d="M17.6259 13.7437C17.5356 13.9979 17.084 14.0799 16.6077 13.9323C16.1315 13.7847 15.8112 13.4484 15.9016 13.1942C15.9837 12.94 16.4435 12.8497 16.9197 13.0056C17.396 13.1532 17.7162 13.4812 17.6259 13.7437Z" fill="#656FB2"/>
<path d="M17.6177 13.7357C17.5356 13.99 17.084 14.072 16.6159 13.9244C16.1479 13.7768 15.8277 13.4487 15.918 13.1945C16.0001 12.9402 16.4517 12.8582 16.928 13.0058C17.3878 13.1534 17.6998 13.4815 17.6177 13.7357Z" fill="#6770B3"/>
<path d="M17.6095 13.7354C17.5274 13.9814 17.0758 14.0635 16.6159 13.9158C16.1479 13.7682 15.8441 13.4484 15.9262 13.1941C16.0083 12.9481 16.4517 12.8579 16.9197 13.0137C17.3796 13.1613 17.6916 13.4812 17.6095 13.7354Z" fill="#6871B4"/>
<path d="M17.6013 13.7275C17.5192 13.9735 17.0758 14.0555 16.6159 13.9079C16.1561 13.7603 15.8523 13.4404 15.9344 13.1944C16.0165 12.9483 16.4599 12.8663 16.9198 13.014C17.3796 13.1616 17.6834 13.4814 17.6013 13.7275Z" fill="#6A72B5"/>
<path d="M17.593 13.7271C17.5109 13.9731 17.0757 14.0551 16.6241 13.9075C16.1643 13.7599 15.8687 13.4482 15.9508 13.2022C16.0329 12.9562 16.4681 12.8741 16.9279 13.0218C17.3713 13.1694 17.6752 13.481 17.593 13.7271Z" fill="#6B74B6"/>
<path d="M17.5848 13.7193C17.5027 13.9571 17.0758 14.0391 16.6241 13.8997C16.1725 13.7603 15.8769 13.4486 15.959 13.2026C16.0411 12.9647 16.4681 12.8827 16.9197 13.0221C17.3631 13.1698 17.667 13.4814 17.5848 13.7193Z" fill="#6D75B6"/>
<path d="M17.5766 13.7193C17.4945 13.9571 17.0676 14.0391 16.6241 13.8915C16.1807 13.7521 15.8851 13.4404 15.9673 13.2026C16.0494 12.9647 16.4763 12.8827 16.9197 13.0221C17.3632 13.1698 17.6588 13.4814 17.5766 13.7193Z" fill="#6F76B7"/>
<path d="M17.5684 13.7109C17.4863 13.9487 17.0676 14.0225 16.6324 13.8831C16.189 13.7437 15.9016 13.4402 15.9755 13.2024C16.0576 12.9645 16.4763 12.8907 16.9115 13.0302C17.3549 13.1778 17.6505 13.4812 17.5684 13.7109Z" fill="#7078B8"/>
<path d="M17.5602 13.7106C17.4781 13.9402 17.0675 14.0222 16.6324 13.8828C16.1972 13.7434 15.9098 13.4399 15.9919 13.2103C16.074 12.9807 16.4846 12.8986 16.9197 13.0381C17.3467 13.1775 17.6423 13.4727 17.5602 13.7106Z" fill="#7279B9"/>
<path d="M17.552 13.7026C17.4781 13.9323 17.0593 14.0061 16.6323 13.8749C16.2054 13.7354 15.918 13.4402 15.9919 13.2106C16.074 12.9809 16.4845 12.9071 16.9115 13.0383C17.3385 13.1778 17.6259 13.473 17.552 13.7026Z" fill="#737AB9"/>
<path d="M17.5438 13.7022C17.4699 13.9319 17.0593 14.0057 16.6406 13.8662C16.2218 13.735 15.9344 13.4398 16.0165 13.2101C16.0904 12.9805 16.501 12.9067 16.9197 13.0461C17.3385 13.1855 17.6177 13.4726 17.5438 13.7022Z" fill="#757CBA"/>
<path d="M17.5356 13.7022C17.4617 13.9236 17.0593 13.9974 16.6405 13.8662C16.2218 13.735 15.9426 13.4397 16.0165 13.2183C16.0904 12.9969 16.4927 12.923 16.9115 13.0543C17.3303 13.1855 17.6095 13.4725 17.5356 13.7022Z" fill="#777DBB"/>
<path d="M17.5274 13.694C17.4535 13.9154 17.0593 13.9892 16.6488 13.858C16.2382 13.7268 15.959 13.4397 16.0411 13.2183C16.115 12.9969 16.5092 12.923 16.9197 13.0543C17.3221 13.1855 17.6013 13.4725 17.5274 13.694Z" fill="#787FBC"/>
<path d="M17.5192 13.6948C17.4453 13.9163 17.0511 13.9819 16.6488 13.8588C16.2382 13.7276 15.9755 13.4488 16.0494 13.2273C16.1233 13.0059 16.5092 12.9403 16.9197 13.0633C17.3221 13.1945 17.5931 13.4734 17.5192 13.6948Z" fill="#7A80BD"/>
<path d="M17.5109 13.6857C17.437 13.8989 17.0511 13.9727 16.6488 13.8415C16.2464 13.7103 15.9755 13.4315 16.0494 13.2182C16.1233 13.005 16.5092 12.9312 16.9115 13.0624C17.3139 13.1936 17.5848 13.4725 17.5109 13.6857Z" fill="#7B81BD"/>
<path d="M17.5027 13.6863C17.4288 13.8995 17.0511 13.9651 16.657 13.8421C16.2629 13.7191 16.0001 13.4402 16.0658 13.227C16.1315 13.0138 16.5174 12.94 16.9115 13.0712C17.3057 13.1942 17.5766 13.473 17.5027 13.6863Z" fill="#7D83BE"/>
<path d="M17.4945 13.6783C17.4206 13.8916 17.0511 13.9572 16.657 13.8342C16.2628 13.7111 16.0001 13.4405 16.074 13.2273C16.1479 13.014 16.5174 12.9484 16.9115 13.0714C17.3057 13.2027 17.5602 13.4733 17.4945 13.6783Z" fill="#7F84BF"/>
<path d="M17.4863 13.6785C17.4206 13.8835 17.0429 13.9573 16.6652 13.8261C16.2793 13.7031 16.0247 13.4406 16.0904 13.2274C16.1643 13.0224 16.5338 12.9485 16.9197 13.0716C17.2974 13.2028 17.552 13.4734 17.4863 13.6785Z" fill="#8085C0"/>
<path d="M17.4781 13.6691C17.4124 13.8741 17.0429 13.9397 16.6652 13.8167C16.2875 13.6937 16.0329 13.4313 16.0986 13.2262C16.1643 13.0212 16.5338 12.9556 16.9115 13.0786C17.2892 13.2016 17.5438 13.4641 17.4781 13.6691Z" fill="#8287C1"/>
<path d="M17.4699 13.6697C17.4042 13.8747 17.0429 13.9403 16.6652 13.8173C16.2875 13.7025 16.0411 13.44 16.1068 13.235C16.1725 13.03 16.5338 12.9644 16.9115 13.0874C17.2892 13.2104 17.5356 13.4647 17.4699 13.6697Z" fill="#8388C2"/>
<path d="M17.4617 13.6618C17.396 13.8587 17.0429 13.9243 16.6734 13.8095C16.3039 13.6946 16.0576 13.4322 16.1233 13.2354C16.189 13.0385 16.542 12.9729 16.9115 13.0877C17.2811 13.2108 17.5274 13.465 17.4617 13.6618Z" fill="#858AC2"/>
<path d="M17.4535 13.6615C17.3878 13.8583 17.0347 13.9239 16.6734 13.8091C16.3121 13.6943 16.0658 13.44 16.1315 13.2432C16.1972 13.0464 16.5502 12.9807 16.9115 13.0956C17.2728 13.2104 17.5192 13.4646 17.4535 13.6615Z" fill="#878BC3"/>
<path d="M17.4461 13.6613C17.3804 13.8581 17.0353 13.9155 16.6738 13.8007C16.3122 13.6859 16.074 13.4399 16.1397 13.243C16.2054 13.0462 16.5505 12.9888 16.912 13.1036C17.2653 13.2184 17.5036 13.4645 17.4461 13.6613Z" fill="#888CC4"/>
<path d="M17.4379 13.6532C17.3721 13.8418 17.0353 13.9074 16.682 13.7926C16.3287 13.6778 16.0904 13.4317 16.1561 13.2431C16.2218 13.0545 16.5587 12.9889 16.912 13.1037C17.2653 13.2185 17.4954 13.4645 17.4379 13.6532Z" fill="#8A8EC5"/>
<path d="M17.4296 13.653C17.3639 13.8417 17.0352 13.8991 16.6819 13.7925C16.3368 13.6776 16.0986 13.4398 16.1643 13.2512C16.23 13.0625 16.5587 13.0051 16.912 13.1118C17.2571 13.2184 17.4871 13.4644 17.4296 13.653Z" fill="#8B8FC6"/>
<path d="M17.4132 13.6454C17.3475 13.8258 17.0188 13.8914 16.6737 13.7766C16.3287 13.67 16.0986 13.4321 16.1643 13.2435C16.2301 13.0631 16.5587 12.9975 16.8956 13.1041C17.2489 13.2271 17.479 13.4649 17.4132 13.6454Z" fill="#8D91C6"/>
<path d="M17.405 13.6448C17.3475 13.8252 17.0188 13.8826 16.682 13.776C16.3451 13.6694 16.115 13.4315 16.1808 13.2511C16.2383 13.0707 16.5669 13.0133 16.9038 13.1199C17.2489 13.2265 17.4707 13.4561 17.405 13.6448Z" fill="#8E92C7"/>
<path d="M17.3968 13.6366C17.3393 13.817 17.0188 13.8744 16.682 13.7678C16.3451 13.6612 16.1232 13.4315 16.189 13.2511C16.2465 13.0707 16.5669 13.0133 16.9038 13.1199C17.2407 13.2265 17.4625 13.4561 17.3968 13.6366Z" fill="#9094C8"/>
<path d="M17.3886 13.6373C17.331 13.8177 17.0106 13.8669 16.6902 13.7685C16.3615 13.6619 16.1479 13.4404 16.2054 13.26C16.2629 13.0878 16.5833 13.0222 16.9038 13.1288C17.2324 13.2354 17.4543 13.4568 17.3886 13.6373Z" fill="#9295C9"/>
<path d="M17.3803 13.6284C17.3228 13.8006 17.0106 13.858 16.6901 13.7596C16.3697 13.653 16.1561 13.4315 16.2136 13.2593C16.2711 13.0871 16.5833 13.0297 16.9038 13.1281C17.2242 13.2347 17.446 13.4561 17.3803 13.6284Z" fill="#9397CA"/>
<path d="M17.3721 13.6289C17.3146 13.8011 17.0106 13.8585 16.6983 13.7519C16.3779 13.6535 16.1725 13.4321 16.23 13.2598C16.2875 13.0876 16.5915 13.0302 16.912 13.1368C17.2242 13.2352 17.4296 13.4567 17.3721 13.6289Z" fill="#9598CB"/>
<path d="M17.3639 13.6201C17.3064 13.7841 17.0106 13.8415 16.6983 13.7431C16.3861 13.6447 16.1807 13.4314 16.2382 13.2592C16.2957 13.0952 16.5915 13.0378 16.9038 13.1362C17.216 13.2428 17.4214 13.456 17.3639 13.6201Z" fill="#979ACB"/>
<path d="M17.3557 13.6207C17.2982 13.7847 17.0024 13.8421 16.6984 13.7437C16.3943 13.6453 16.1889 13.432 16.2464 13.268C16.304 13.104 16.5998 13.0466 16.9038 13.145C17.2078 13.2434 17.4132 13.4566 17.3557 13.6207Z" fill="#989BCC"/>
<path d="M17.3474 13.6121C17.2899 13.7762 17.0023 13.8254 16.7066 13.7269C16.4025 13.6285 16.2053 13.4235 16.2629 13.2595C16.3122 13.0954 16.608 13.0462 16.9037 13.1364C17.2078 13.2431 17.4049 13.4563 17.3474 13.6121Z" fill="#9A9DCD"/>
<path d="M17.3392 13.6124C17.2899 13.7682 17.0023 13.8256 16.7065 13.7272C16.4107 13.637 16.2135 13.4319 16.2711 13.2679C16.3204 13.1121 16.6079 13.0547 16.9037 13.1531C17.1995 13.2515 17.3967 13.4565 17.3392 13.6124Z" fill="#9B9ECE"/>
<path d="M17.331 13.6122C17.2817 13.7681 17.0023 13.8173 16.7065 13.7271C16.419 13.6368 16.2218 13.4318 16.2793 13.276C16.3286 13.1202 16.6079 13.071 16.9037 13.1612C17.1913 13.2514 17.3885 13.4564 17.331 13.6122Z" fill="#9DA0CF"/>
<path d="M17.3227 13.604C17.2734 13.7599 16.9941 13.8091 16.7147 13.7189C16.4272 13.6286 16.2382 13.4318 16.2875 13.276C16.3368 13.1202 16.6161 13.071 16.8955 13.1612C17.1831 13.2514 17.3803 13.4482 17.3227 13.604Z" fill="#9EA1CF"/>
<path d="M17.3145 13.6041C17.2652 13.7517 16.9941 13.8009 16.7147 13.7189C16.4354 13.6287 16.2464 13.44 16.3039 13.2842C16.3532 13.1366 16.6243 13.0874 16.9037 13.1694C17.1831 13.2596 17.3638 13.4482 17.3145 13.6041Z" fill="#A0A3D0"/>
<path d="M17.3063 13.5958C17.257 13.7434 16.9941 13.7926 16.7147 13.7024C16.4436 13.6122 16.2546 13.4235 16.3039 13.2759C16.3532 13.1283 16.6161 13.0791 16.8955 13.1693C17.1749 13.2595 17.3556 13.4481 17.3063 13.5958Z" fill="#A2A4D1"/>
<path d="M17.2981 13.5964C17.2488 13.744 16.9941 13.785 16.7229 13.703C16.4518 13.621 16.271 13.4323 16.3203 13.2847C16.3696 13.1371 16.6326 13.0879 16.8955 13.1781C17.1666 13.2601 17.3474 13.4487 17.2981 13.5964Z" fill="#A3A6D2"/>
<path d="M17.2899 13.5876C17.2406 13.727 16.9859 13.7762 16.7229 13.6942C16.46 13.6122 16.2793 13.4317 16.3285 13.2841C16.3778 13.1447 16.6326 13.0955 16.8955 13.1775C17.1666 13.2677 17.3392 13.4481 17.2899 13.5876Z" fill="#A5A7D3"/>
<path d="M17.2817 13.5881C17.2324 13.7275 16.9859 13.7685 16.7312 13.6865C16.4764 13.6045 16.2957 13.4241 16.345 13.2847C16.3943 13.1452 16.6408 13.096 16.8955 13.1862C17.1584 13.2682 17.331 13.4487 17.2817 13.5881Z" fill="#A6A9D4"/>
<path d="M17.2734 13.5793C17.2323 13.7105 16.9858 13.7597 16.7311 13.6777C16.4764 13.5957 16.3121 13.4234 16.3532 13.284C16.4025 13.1528 16.6408 13.1036 16.8955 13.1856C17.1502 13.2676 17.3227 13.448 17.2734 13.5793Z" fill="#A8AAD4"/>
<path d="M17.2652 13.5799C17.2159 13.7111 16.9858 13.7603 16.7311 13.6783C16.4846 13.5963 16.3203 13.424 16.3614 13.2928C16.4107 13.1616 16.6408 13.1124 16.8955 13.1944C17.142 13.2764 17.3145 13.4486 17.2652 13.5799Z" fill="#AAACD5"/>
<path d="M17.2569 13.5709C17.2159 13.7022 16.9776 13.7432 16.7393 13.6694C16.501 13.5955 16.3367 13.4233 16.3778 13.2921C16.4189 13.1609 16.6571 13.1199 16.8954 13.1937C17.1419 13.2757 17.298 13.4397 17.2569 13.5709Z" fill="#ABADD6"/>
<path d="M17.2487 13.5709C17.2077 13.7022 16.9776 13.7432 16.7393 13.6612C16.501 13.5873 16.3449 13.4233 16.386 13.2921C16.4271 13.1609 16.6572 13.1199 16.8954 13.1937C17.1337 13.2839 17.2898 13.4397 17.2487 13.5709Z" fill="#ADAFD7"/>
<path d="M17.2405 13.5714C17.1994 13.6945 16.9776 13.7355 16.7475 13.6617C16.5175 13.5879 16.3614 13.432 16.4024 13.3008C16.4435 13.1778 16.6654 13.1368 16.8954 13.2106C17.1255 13.2844 17.2816 13.4402 17.2405 13.5714Z" fill="#AEB0D8"/>
<path d="M17.2323 13.5632C17.1912 13.6863 16.9694 13.7273 16.7475 13.6535C16.5257 13.5797 16.3696 13.4238 16.4107 13.3008C16.4517 13.1778 16.6654 13.1368 16.8954 13.2106C17.1255 13.2844 17.2734 13.4402 17.2323 13.5632Z" fill="#B0B2D9"/>
<path d="M17.2241 13.5631C17.183 13.6779 16.9693 13.7189 16.7475 13.6533C16.5257 13.5795 16.3778 13.4319 16.4188 13.3089C16.4599 13.1859 16.6735 13.1531 16.8954 13.2187C17.1172 13.2843 17.2651 13.4401 17.2241 13.5631Z" fill="#B2B3DA"/>
<path d="M17.2158 13.555C17.1748 13.6698 16.9693 13.7108 16.7557 13.637C16.5421 13.5714 16.3942 13.4156 16.4353 13.3007C16.4764 13.1859 16.6818 13.1449 16.9036 13.2187C17.109 13.2925 17.2569 13.4402 17.2158 13.555Z" fill="#B3B5DA"/>
<path d="M17.2076 13.5556C17.1666 13.6704 16.9694 13.7032 16.7557 13.6376C16.5421 13.572 16.4024 13.4243 16.4435 13.3095C16.4846 13.1947 16.6818 13.1537 16.8954 13.2275C17.1008 13.2931 17.2487 13.4407 17.2076 13.5556Z" fill="#B5B6DB"/>
<path d="M17.1994 13.5467C17.1666 13.6615 16.9694 13.6943 16.7639 13.6287C16.5585 13.5631 16.4189 13.4236 16.4599 13.3088C16.501 13.194 16.69 13.1612 16.9036 13.2268C17.1008 13.2924 17.2405 13.44 17.1994 13.5467Z" fill="#B6B8DC"/>
<path d="M17.1912 13.547C17.1583 13.6538 16.9611 13.6867 16.7639 13.6292C16.5667 13.5634 16.4271 13.4238 16.4681 13.3169C16.501 13.2101 16.6982 13.169 16.8954 13.2348C17.0926 13.3005 17.224 13.4402 17.1912 13.547Z" fill="#B8B9DD"/>
<path d="M17.183 13.5394C17.1501 13.6463 16.9611 13.6791 16.7639 13.6134C16.5667 13.5477 16.4353 13.4162 16.4763 13.3094C16.5092 13.2026 16.6982 13.1697 16.8954 13.2272C17.0844 13.3012 17.2158 13.4409 17.183 13.5394Z" fill="#B9BBDD"/>
<path d="M17.1747 13.5387C17.1419 13.6373 16.9611 13.6701 16.7639 13.6126C16.5749 13.5551 16.4517 13.4237 16.4845 13.3168C16.5174 13.2182 16.6982 13.1772 16.8954 13.2429C17.0843 13.3004 17.2076 13.4319 17.1747 13.5387Z" fill="#BBBCDE"/>
<path d="M17.1665 13.5307C17.1336 13.6293 16.9529 13.6622 16.7721 13.6047C16.5914 13.5472 16.4681 13.4157 16.501 13.3171C16.5338 13.2185 16.7146 13.1856 16.8954 13.2431C17.0761 13.3089 17.1994 13.4321 17.1665 13.5307Z" fill="#BCBEDF"/>
<path d="M17.1583 13.5303C17.1254 13.6289 16.9529 13.6618 16.7721 13.6043C16.5914 13.5467 16.4763 13.4235 16.5092 13.3249C16.5421 13.2263 16.7146 13.1934 16.8954 13.251C17.0679 13.3085 17.1912 13.4317 17.1583 13.5303Z" fill="#BEC0E0"/>
<path d="M17.1501 13.5312C17.1172 13.6216 16.9529 13.6544 16.7803 13.5969C16.6078 13.5394 16.4928 13.4244 16.5256 13.3258C16.5585 13.2354 16.7228 13.2025 16.8954 13.2601C17.0597 13.3094 17.1829 13.4326 17.1501 13.5312Z" fill="#C0C1E1"/>
<path d="M17.1418 13.523C17.109 13.6134 16.9529 13.6462 16.7803 13.5887C16.616 13.5312 16.501 13.4162 16.5338 13.3258C16.5667 13.2354 16.731 13.2025 16.8953 13.2601C17.0597 13.3176 17.1747 13.4326 17.1418 13.523Z" fill="#C1C2E2"/>
<path d="M17.1336 13.5228C17.1007 13.6132 16.9446 13.6379 16.7803 13.5886C16.616 13.5393 16.5092 13.4242 16.5338 13.3339C16.5667 13.2435 16.7228 13.2188 16.8871 13.2681C17.0514 13.3174 17.1583 13.4325 17.1336 13.5228Z" fill="#C3C4E2"/>
<path d="M17.1254 13.5138C17.1007 13.596 16.9446 13.6288 16.7885 13.5795C16.6324 13.5302 16.5256 13.4234 16.5584 13.333C16.5913 13.2509 16.7392 13.218 16.8953 13.2673C17.0432 13.3166 17.15 13.4316 17.1254 13.5138Z" fill="#C4C6E3"/>
<path d="M17.1172 13.5143C17.0925 13.5965 16.9446 13.6211 16.7885 13.5718C16.6406 13.5225 16.5338 13.4157 16.5667 13.3335C16.5913 13.2514 16.7392 13.2185 16.8953 13.276C17.0432 13.3253 17.1418 13.4321 17.1172 13.5143Z" fill="#C6C7E4"/>
<path d="M17.1089 13.5063C17.0843 13.5885 16.9446 13.6131 16.7967 13.5638C16.6488 13.5145 16.5502 13.416 16.5749 13.3338C16.5995 13.2516 16.7392 13.227 16.8871 13.2763C17.035 13.3256 17.1336 13.4324 17.1089 13.5063Z" fill="#C7C9E5"/>
<path d="M17.1007 13.5063C17.0761 13.5802 16.9364 13.6049 16.7967 13.5638C16.657 13.5145 16.5584 13.4241 16.5831 13.342C16.6077 13.268 16.7474 13.2434 16.8871 13.2844C17.0268 13.3337 17.1254 13.4241 17.1007 13.5063Z" fill="#C9CAE6"/>
<path d="M17.0925 13.4975C17.0678 13.5714 16.9364 13.5961 16.7967 13.5468C16.657 13.5057 16.5666 13.4071 16.5913 13.3332C16.6159 13.2592 16.7474 13.2346 16.8871 13.2757C17.0268 13.3332 17.1171 13.4235 17.0925 13.4975Z" fill="#CACCE7"/>
<path d="M17.0843 13.4977C17.0596 13.5716 16.9364 13.588 16.8049 13.547C16.6735 13.5059 16.5831 13.4155 16.6077 13.3415C16.6324 13.2676 16.7556 13.243 16.8871 13.2922C17.0185 13.3333 17.1089 13.4237 17.0843 13.4977Z" fill="#CCCDE7"/>
<path d="M17.076 13.4897C17.0514 13.5555 16.9281 13.5801 16.8049 13.539C16.6816 13.498 16.5913 13.4076 16.6159 13.3418C16.6406 13.2761 16.7638 13.2515 16.8871 13.2925C17.0103 13.3418 17.0925 13.424 17.076 13.4897Z" fill="#CDCFE8"/>
<path d="M17.0678 13.4893C17.0432 13.5551 16.9281 13.5797 16.8131 13.5386C16.6899 13.4976 16.6159 13.4154 16.6323 13.3497C16.657 13.2839 16.772 13.2593 16.887 13.3004C17.0103 13.3414 17.0842 13.4236 17.0678 13.4893Z" fill="#CFD1E9"/>
<path d="M17.0596 13.4902C17.0349 13.5559 16.9281 13.5723 16.8131 13.5395C16.6981 13.4984 16.6241 13.4244 16.6406 13.3587C16.657 13.293 16.772 13.2765 16.887 13.3094C17.0021 13.3423 17.076 13.4244 17.0596 13.4902Z" fill="#D0D2EA"/>
<path d="M17.0514 13.481C17.0349 13.5385 16.9281 13.5632 16.8131 13.5221C16.7063 13.4892 16.6323 13.4071 16.6488 13.3496C16.6652 13.2921 16.772 13.2674 16.887 13.3085C16.9939 13.3496 17.0678 13.4235 17.0514 13.481Z" fill="#D2D4EB"/>
<path d="M14.8669 26.2179C14.1279 26.2507 13.4053 26.2097 12.7074 26.1195C13.9883 26.874 15.5074 27.1939 17.0347 27.0052C17.7409 26.9396 18.406 26.7592 19.03 26.4721C19.2681 26.3573 19.4898 26.2425 19.6869 26.1113L19.8429 26.0047L19.9086 25.9637C20.3192 25.693 20.7133 25.3732 21.0664 25.0041C21.5591 24.4956 21.9532 23.9215 22.257 23.2982L22.3638 23.0768L22.3802 23.044L22.4295 22.9292C22.5198 22.7159 22.5937 22.5027 22.6594 22.2812C21.2881 24.471 18.3485 26.0703 14.8669 26.2179Z" fill="#FFE800"/>
<path d="M59.5769 36.4448C59.1499 36.4448 58.8379 36.1332 58.8379 35.7231C58.8379 35.2884 59.1828 34.9932 59.5769 34.9932C59.971 34.9932 60.3077 35.2802 60.3077 35.7231C60.3077 36.1578 59.971 36.4448 59.5769 36.4448ZM59.5769 35.1162C59.2485 35.1162 59.0021 35.3622 59.0021 35.7149C59.0021 36.0429 59.2238 36.3136 59.5769 36.3136C59.8971 36.3136 60.1517 36.0675 60.1517 35.7149C60.1517 35.3622 59.8971 35.1162 59.5769 35.1162ZM59.4291 36.1332H59.2895V35.3294H59.6015C59.7986 35.3294 59.9053 35.395 59.9053 35.5591C59.9053 35.7067 59.815 35.7641 59.6919 35.7805L59.9218 36.1332H59.7658L59.5523 35.7887H59.4209V36.1332H59.4291ZM59.5851 35.6821C59.6836 35.6821 59.774 35.6739 59.774 35.5591C59.774 35.4606 59.6754 35.4524 59.5933 35.4524H59.4291V35.6903H59.5851V35.6821Z" fill="#E72D18"/>
</svg>
